<svg width="465" height="158" viewBox="0 0 465 158" fill="none" xmlns="http://www.w3.org/2000/svg">
<path d="M67 49C67 45.6863 69.6863 43 73 43H168C171.314 43 174 45.6863 174 49V114C174 117.314 171.314 120 168 120H157C153.686 120 151 122.686 151 126V144.172C151 145.953 148.846 146.846 147.586 145.586L123.757 121.757C122.632 120.632 121.106 120 119.515 120H73C69.6863 120 67 117.314 67 114V49Z" fill="url(#paint0_linear_19_3517)"/>
<g filter="url(#filter0_d_19_3517)">
<path d="M20 20C20 16.6863 22.6863 14 26 14H121C124.314 14 127 16.6863 127 20V85C127 88.3137 124.314 91 121 91H75.9558C74.382 91 72.8711 91.6184 71.749 92.7219L46.9023 117.154C45.6376 118.398 43.5 117.502 43.5 115.728V97C43.5 93.6863 40.8137 91 37.5 91H26C22.6863 91 20 88.3137 20 85V20Z" fill="url(#paint1_linear_19_3517)"/>
</g>
<path d="M464.773 68.3036L463.172 77.4442H438.406L440.008 68.3036H464.773ZM447 57.7958H459.852L453.133 96.8583C453.029 97.7697 453.029 98.5249 453.133 99.1239C453.237 99.6968 453.51 100.14 453.953 100.452C454.422 100.738 455.138 100.908 456.102 100.96C456.648 100.986 457.195 100.973 457.742 100.921C458.289 100.869 458.836 100.817 459.383 100.765L458.484 110.296C457.365 110.66 456.219 110.921 455.047 111.077C453.901 111.233 452.729 111.311 451.531 111.311C448.875 111.259 446.648 110.725 444.852 109.71C443.081 108.668 441.792 107.197 440.984 105.296C440.203 103.369 439.93 101.077 440.164 98.4208L447 57.7958Z" fill="#0F4888"/>
<path d="M417.742 99.9442L420.477 82.3661C420.581 81.4286 420.568 80.5302 420.438 79.6708C420.333 78.8114 420.008 78.1083 419.461 77.5614C418.94 76.9885 418.12 76.689 417 76.663C415.984 76.6369 415.125 76.8192 414.422 77.2099C413.719 77.6005 413.159 78.1474 412.742 78.8505C412.326 79.5536 412.026 80.3609 411.844 81.2724L398.953 81.3505C399.057 78.9026 399.708 76.7932 400.906 75.0224C402.104 73.2515 403.641 71.8062 405.516 70.6864C407.391 69.5666 409.435 68.7463 411.648 68.2255C413.888 67.7047 416.089 67.4703 418.25 67.5224C421.219 67.5744 423.901 68.1994 426.297 69.3974C428.719 70.5692 430.581 72.275 431.883 74.5145C433.211 76.7281 433.719 79.4234 433.406 82.6005L430.633 99.9442C430.398 101.507 430.19 103.173 430.008 104.944C429.826 106.689 430.086 108.317 430.789 109.827L430.75 110.569L418.211 110.608C417.638 108.916 417.352 107.158 417.352 105.335C417.352 103.512 417.482 101.715 417.742 99.9442ZM421.922 84.7489L420.75 91.7802L415.711 91.7411C414.721 91.7672 413.771 91.9364 412.859 92.2489C411.974 92.5354 411.18 92.952 410.477 93.4989C409.773 94.0458 409.188 94.7229 408.719 95.5302C408.276 96.3375 407.99 97.2619 407.859 98.3036C407.755 99.0067 407.807 99.6448 408.016 100.218C408.25 100.765 408.602 101.207 409.07 101.546C409.565 101.884 410.177 102.067 410.906 102.093C412.026 102.119 413.107 101.91 414.148 101.468C415.19 101.025 416.089 100.4 416.844 99.5927C417.625 98.7854 418.159 97.8479 418.445 96.7802L420.711 102.288C420.034 103.642 419.253 104.879 418.367 105.999C417.508 107.119 416.531 108.095 415.438 108.929C414.37 109.736 413.172 110.361 411.844 110.804C410.516 111.246 409.044 111.455 407.43 111.429C405.112 111.377 402.977 110.817 401.023 109.749C399.07 108.681 397.521 107.223 396.375 105.374C395.229 103.525 394.695 101.39 394.773 98.9677C394.878 96.1552 395.568 93.8244 396.844 91.9755C398.12 90.1265 399.773 88.6812 401.805 87.6395C403.862 86.5718 406.089 85.8166 408.484 85.3739C410.906 84.9312 413.302 84.7099 415.672 84.7099L421.922 84.7489Z" fill="#0F4888"/>
<path d="M373.68 50.5692L363.25 110.569H350.398L360.828 50.5692H373.68ZM365.711 87.9911L362.898 88.1083C363.133 85.7645 363.641 83.3687 364.422 80.9208C365.229 78.4729 366.323 76.2203 367.703 74.163C369.109 72.1057 370.841 70.465 372.898 69.2411C374.956 67.9911 377.378 67.4052 380.164 67.4833C382.612 67.5354 384.63 68.0302 386.219 68.9677C387.833 69.9052 389.083 71.1682 389.969 72.7567C390.88 74.3192 391.479 76.1031 391.766 78.1083C392.052 80.0874 392.078 82.1578 391.844 84.3192L387.469 110.569H374.539L378.992 84.202C379.122 82.952 379.096 81.8453 378.914 80.8817C378.732 79.8921 378.289 79.1109 377.586 78.538C376.909 77.939 375.88 77.6265 374.5 77.6005C372.938 77.5744 371.635 77.8479 370.594 78.4208C369.552 78.9937 368.706 79.788 368.055 80.8036C367.404 81.7932 366.896 82.913 366.531 84.163C366.193 85.413 365.919 86.689 365.711 87.9911Z" fill="#0F4888"/>
<path d="M334.773 91.3505L347.859 91.1942C347.495 95.5172 346.102 99.2021 343.68 102.249C341.284 105.27 338.25 107.561 334.578 109.124C330.932 110.686 327.039 111.429 322.898 111.35C318.966 111.272 315.659 110.465 312.977 108.929C310.294 107.366 308.185 105.283 306.648 102.679C305.112 100.048 304.096 97.1057 303.602 93.8505C303.107 90.5692 303.081 87.1838 303.523 83.6942L303.953 80.6083C304.474 76.9885 305.437 73.5119 306.844 70.1786C308.25 66.8192 310.086 63.8244 312.352 61.1942C314.643 58.564 317.365 56.5067 320.516 55.0224C323.667 53.5119 327.234 52.7958 331.219 52.8739C335.464 52.9521 339.07 53.8375 342.039 55.5302C345.034 57.2229 347.352 59.5927 348.992 62.6396C350.659 65.6864 351.596 69.2802 351.805 73.4208L338.484 73.3817C338.562 71.3765 338.367 69.6578 337.898 68.2255C337.43 66.7932 336.596 65.6864 335.398 64.9052C334.227 64.0979 332.573 63.6552 330.437 63.5771C328.12 63.4989 326.18 63.9807 324.617 65.0224C323.081 66.038 321.831 67.4052 320.867 69.1239C319.904 70.8427 319.161 72.7047 318.641 74.7099C318.146 76.7151 317.768 78.6552 317.508 80.5302L317.117 83.7333C316.935 85.2698 316.766 87.0015 316.609 88.9286C316.453 90.8297 316.518 92.6656 316.805 94.4364C317.091 96.1812 317.755 97.6396 318.797 98.8114C319.839 99.9833 321.466 100.608 323.68 100.686C325.763 100.739 327.573 100.413 329.109 99.7099C330.646 98.9807 331.883 97.913 332.82 96.5067C333.784 95.0744 334.435 93.3557 334.773 91.3505Z" fill="#0F4888"/>
<path d="M294.969 80.9598L293.211 91.1552H270.359L272.117 80.9598H294.969Z" fill="#0F4888"/>
<path d="M261.883 100.022L260.047 110.569H230.555L232.391 100.022H261.883ZM245.242 53.6942L235.359 110.569H222L231.844 53.6942H245.242ZM262.195 76.2723L260.438 86.4677H234.734L236.531 76.2723H262.195ZM270.008 53.6942L268.172 64.2802H238.562L240.438 53.6942H270.008Z" fill="#0F4888"/>
<defs>
<filter id="filter0_d_19_3517" x="0" y="0" width="147" height="143.732" filterUnits="userSpaceOnUse" color-interpolation-filters="sRGB">
<feFlood flood-opacity="0" result="BackgroundImageFix"/>
<feColorMatrix in="SourceAlpha" type="matrix" values="0 0 0 0 0 0 0 0 0 0 0 0 0 0 0 0 0 0 127 0" result="hardAlpha"/>
<feOffset dy="6"/>
<feGaussianBlur stdDeviation="10"/>
<feComposite in2="hardAlpha" operator="out"/>
<feColorMatrix type="matrix" values="0 0 0 0 0.0509804 0 0 0 0 0.0392157 0 0 0 0 0.172549 0 0 0 0.1 0"/>
<feBlend mode="normal" in2="BackgroundImageFix" result="effect1_dropShadow_19_3517"/>
<feBlend mode="normal" in="SourceGraphic" in2="effect1_dropShadow_19_3517" result="shape"/>
</filter>
<linearGradient id="paint0_linear_19_3517" x1="67" y1="43" x2="170.155" y2="119.605" gradientUnits="userSpaceOnUse">
<stop stop-color="#1565C0"/>
<stop offset="1" stop-color="#0F4888"/>
</linearGradient>
<linearGradient id="paint1_linear_19_3517" x1="20" y1="14" x2="123.5" y2="90.5" gradientUnits="userSpaceOnUse">
<stop stop-color="#40C4FF"/>
<stop offset="1" stop-color="#03A9F4"/>
</linearGradient>
</defs>
</svg>
