<svg width="465" height="158" viewBox="0 0 465 158" fill="none" xmlns="http://www.w3.org/2000/svg">
<path d="M67 49C67 45.6863 69.6863 43 73 43H168C171.314 43 174 45.6863 174 49V114C174 117.314 171.314 120 168 120H157C153.686 120 151 122.686 151 126V144.172C151 145.953 148.846 146.846 147.586 145.586L123.757 121.757C122.632 120.632 121.106 120 119.515 120H73C69.6863 120 67 117.314 67 114V49Z" fill="white"/>
<g filter="url(#filter0_d_19_3529)">
<path d="M20 20C20 16.6863 22.6863 14 26 14H121C124.314 14 127 16.6863 127 20V85C127 88.3137 124.314 91 121 91H75.9558C74.382 91 72.8711 91.6184 71.749 92.7219L46.9023 117.154C45.6376 118.398 43.5 117.502 43.5 115.728V97C43.5 93.6863 40.8137 91 37.5 91H26C22.6863 91 20 88.3137 20 85V20Z" fill="url(#paint0_linear_19_3529)"/>
</g>
<path d="M464.891 65.7344L463.289 74.875H438.523L440.125 65.7344H464.891ZM447.117 55.2266H459.969L453.25 94.2891C453.146 95.2005 453.146 95.9557 453.25 96.5547C453.354 97.1276 453.628 97.5703 454.07 97.8828C454.539 98.1693 455.255 98.3385 456.219 98.3906C456.766 98.4167 457.312 98.4036 457.859 98.3516C458.406 98.2995 458.953 98.2474 459.5 98.1953L458.602 107.727C457.482 108.091 456.336 108.352 455.164 108.508C454.018 108.664 452.846 108.742 451.648 108.742C448.992 108.69 446.766 108.156 444.969 107.141C443.198 106.099 441.909 104.628 441.102 102.727C440.32 100.799 440.047 98.5078 440.281 95.8516L447.117 55.2266Z" fill="white"/>
<path d="M417.859 97.375L420.594 79.7969C420.698 78.8594 420.685 77.961 420.555 77.1016C420.451 76.2422 420.125 75.5391 419.578 74.9922C419.057 74.4193 418.237 74.1198 417.117 74.0938C416.102 74.0677 415.242 74.25 414.539 74.6406C413.836 75.0313 413.276 75.5781 412.859 76.2813C412.443 76.9844 412.143 77.7917 411.961 78.7031L399.07 78.7813C399.174 76.3334 399.826 74.224 401.023 72.4531C402.221 70.6823 403.758 69.237 405.633 68.1172C407.508 66.9974 409.552 66.1771 411.766 65.6563C414.005 65.1354 416.206 64.9011 418.367 64.9531C421.336 65.0052 424.018 65.6302 426.414 66.8281C428.836 68 430.698 69.7058 432 71.9453C433.328 74.1589 433.836 76.8542 433.523 80.0313L430.75 97.375C430.516 98.9375 430.307 100.604 430.125 102.375C429.943 104.12 430.203 105.747 430.906 107.258L430.867 108L418.328 108.039C417.755 106.346 417.469 104.589 417.469 102.766C417.469 100.943 417.599 99.1459 417.859 97.375ZM422.039 82.1797L420.867 89.211L415.828 89.1719C414.839 89.1979 413.888 89.3672 412.977 89.6797C412.091 89.9662 411.297 90.3828 410.594 90.9297C409.891 91.4766 409.305 92.1537 408.836 92.961C408.393 93.7683 408.107 94.6927 407.977 95.7344C407.872 96.4375 407.924 97.0755 408.133 97.6485C408.367 98.1953 408.719 98.638 409.188 98.9766C409.682 99.3151 410.294 99.4974 411.023 99.5235C412.143 99.5495 413.224 99.3412 414.266 98.8985C415.307 98.4558 416.206 97.8308 416.961 97.0235C417.742 96.2162 418.276 95.2787 418.563 94.211L420.828 99.7188C420.151 101.073 419.37 102.31 418.484 103.43C417.625 104.55 416.648 105.526 415.555 106.359C414.487 107.167 413.289 107.792 411.961 108.234C410.633 108.677 409.161 108.885 407.547 108.859C405.229 108.807 403.094 108.247 401.141 107.18C399.188 106.112 397.638 104.654 396.492 102.805C395.346 100.956 394.813 98.8203 394.891 96.3985C394.995 93.586 395.685 91.2552 396.961 89.4063C398.237 87.5573 399.891 86.112 401.922 85.0703C403.979 84.0026 406.206 83.2474 408.602 82.8047C411.023 82.362 413.419 82.1406 415.789 82.1406L422.039 82.1797Z" fill="white"/>
<path d="M373.797 48L363.367 108H350.516L360.945 48H373.797ZM365.828 85.4219L363.016 85.5391C363.25 83.1953 363.758 80.7995 364.539 78.3516C365.346 75.9036 366.44 73.651 367.82 71.5938C369.227 69.5365 370.958 67.8958 373.016 66.6719C375.073 65.4219 377.495 64.8359 380.281 64.9141C382.729 64.9661 384.747 65.4609 386.336 66.3984C387.951 67.3359 389.201 68.599 390.086 70.1875C390.997 71.75 391.596 73.5339 391.883 75.5391C392.169 77.5182 392.195 79.5885 391.961 81.75L387.586 108H374.656L379.109 81.6328C379.24 80.3828 379.214 79.276 379.031 78.3125C378.849 77.3229 378.406 76.5417 377.703 75.9688C377.026 75.3698 375.997 75.0573 374.617 75.0312C373.055 75.0052 371.753 75.2786 370.711 75.8516C369.669 76.4245 368.823 77.2188 368.172 78.2344C367.521 79.224 367.013 80.3438 366.648 81.5938C366.31 82.8438 366.036 84.1198 365.828 85.4219Z" fill="white"/>
<path d="M334.891 88.7813L347.977 88.625C347.612 92.9479 346.219 96.6328 343.797 99.6797C341.401 102.701 338.367 104.992 334.695 106.555C331.049 108.117 327.156 108.859 323.016 108.781C319.083 108.703 315.776 107.896 313.094 106.359C310.411 104.797 308.302 102.714 306.766 100.109C305.229 97.4792 304.214 94.5365 303.719 91.2813C303.224 88 303.198 84.6146 303.641 81.125L304.07 78.0391C304.591 74.4193 305.555 70.9427 306.961 67.6094C308.367 64.25 310.203 61.2552 312.469 58.625C314.76 55.9948 317.482 53.9375 320.633 52.4532C323.784 50.9427 327.352 50.2266 331.336 50.3047C335.581 50.3828 339.187 51.2683 342.156 52.961C345.151 54.6537 347.469 57.0235 349.109 60.0703C350.776 63.1172 351.714 66.711 351.922 70.8516L338.602 70.8125C338.68 68.8073 338.484 67.0886 338.016 65.6563C337.547 64.224 336.714 63.1172 335.516 62.336C334.344 61.5287 332.69 61.086 330.555 61.0078C328.237 60.9297 326.297 61.4115 324.734 62.4532C323.198 63.4688 321.948 64.836 320.984 66.5547C320.021 68.2735 319.279 70.1354 318.758 72.1407C318.263 74.1459 317.885 76.086 317.625 77.961L317.234 81.1641C317.052 82.7005 316.883 84.4323 316.727 86.3594C316.57 88.2604 316.635 90.0964 316.922 91.8672C317.208 93.612 317.872 95.0703 318.914 96.2422C319.956 97.4141 321.583 98.0391 323.797 98.1172C325.88 98.1693 327.69 97.8438 329.227 97.1407C330.763 96.4115 332 95.3438 332.937 93.9375C333.901 92.5052 334.552 90.7865 334.891 88.7813Z" fill="white"/>
<path d="M295.086 78.3906L293.328 88.5859H270.477L272.234 78.3906H295.086Z" fill="white"/>
<path d="M262 97.4531L260.164 108H230.672L232.508 97.4531H262ZM245.359 51.125L235.477 108H222.117L231.961 51.125H245.359ZM262.312 73.7031L260.555 83.8984H234.852L236.648 73.7031H262.312ZM270.125 51.125L268.289 61.7109H238.68L240.555 51.125H270.125Z" fill="white"/>
<defs>
<filter id="filter0_d_19_3529" x="0" y="0" width="147" height="143.732" filterUnits="userSpaceOnUse" color-interpolation-filters="sRGB">
<feFlood flood-opacity="0" result="BackgroundImageFix"/>
<feColorMatrix in="SourceAlpha" type="matrix" values="0 0 0 0 0 0 0 0 0 0 0 0 0 0 0 0 0 0 127 0" result="hardAlpha"/>
<feOffset dy="6"/>
<feGaussianBlur stdDeviation="10"/>
<feComposite in2="hardAlpha" operator="out"/>
<feColorMatrix type="matrix" values="0 0 0 0 0.0509804 0 0 0 0 0.0392157 0 0 0 0 0.172549 0 0 0 0.1 0"/>
<feBlend mode="normal" in2="BackgroundImageFix" result="effect1_dropShadow_19_3529"/>
<feBlend mode="normal" in="SourceGraphic" in2="effect1_dropShadow_19_3529" result="shape"/>
</filter>
<linearGradient id="paint0_linear_19_3529" x1="20" y1="14" x2="123.5" y2="90.5" gradientUnits="userSpaceOnUse">
<stop stop-color="#40C4FF"/>
<stop offset="1" stop-color="#03A9F4"/>
</linearGradient>
</defs>
</svg>
