<svg width="290" height="140" viewBox="0 0 290 140" fill="none" xmlns="http://www.w3.org/2000/svg">
<g clip-path="url(#clip0_25_2692)">
<path d="M39.3568 111.93H256.911V1.79468H39.3568V111.93Z" fill="white"/>
<path d="M258.705 113.725H37.5621V0H258.705V113.725ZM41.1514 110.136H255.116V3.58926H41.1514V110.136Z" fill="#E5E5E5"/>
<path d="M140.894 25.0945V62.4758H86.5543L76.5153 74.5209L77.6616 62.4758H72.777V25.0945H140.894Z" fill="#40C4FF"/>
<path d="M173.779 27.3123V51.2797H208.619L215.056 59.0022L214.321 51.2797H217.453V27.3123H173.779Z" fill="#F0F0F0"/>
<path d="M29.9918 136.465H33.1351L34.6306 124.341H29.9915L29.9918 136.465Z" fill="#FFB7B7"/>
<path d="M29.1901 135.439L35.3804 135.438C36.4266 135.439 37.4302 135.854 38.17 136.594C38.9098 137.334 39.3255 138.337 39.3255 139.383V139.512L29.1902 139.512L29.1901 135.439Z" fill="#2F2E41"/>
<path d="M67.7561 136.362L70.8085 135.61L69.3634 123.48L64.8586 124.589L67.7561 136.362Z" fill="#FFB7B7"/>
<path d="M66.7324 135.557L72.7433 134.077C73.7593 133.827 74.8332 133.991 75.7283 134.533C76.6234 135.074 77.2668 135.949 77.5169 136.965L77.5475 137.09L67.7059 139.512L66.7324 135.557Z" fill="#2F2E41"/>
<path d="M28.0588 133.574L28.7118 130.233C28.7118 130.233 29.9138 117.334 38.5398 104.46L41.3475 90.4751C41.3475 90.4751 40.5137 79.8895 48.5619 74.1594L51.0432 72.4502L59.7426 72.9488L61.7518 83.9488L65.8001 109.976C65.8001 109.976 66.8449 110.074 67.2367 113.084C68.0329 114.348 68.504 115.789 68.6079 117.279C68.6079 117.279 70.6797 122.995 71.2347 127.203L71.1694 131.321L66.7946 133.652L57.6763 107.864L51.1545 93.4479C51.1545 93.4479 48.0155 103.605 43.2076 112.307C43.2076 112.307 36.6224 126.56 35.3068 129.456L33.8702 134.196L28.0588 133.574Z" fill="#2F2E41"/>
<path d="M57.1456 50.3159C60.5798 50.3159 63.3637 47.532 63.3637 44.0979C63.3637 40.6638 60.5798 37.8799 57.1456 37.8799C53.7115 37.8799 50.9276 40.6638 50.9276 44.0979C50.9276 47.532 53.7115 50.3159 57.1456 50.3159Z" fill="#FFB7B7"/>
<path d="M57.1456 50.3159C60.5798 50.3159 63.3637 47.532 63.3637 44.0979C63.3637 40.6638 60.5798 37.8799 57.1456 37.8799C53.7115 37.8799 50.9276 40.6638 50.9276 44.0979C50.9276 47.532 53.7115 50.3159 57.1456 50.3159Z" fill="#FFB8B8"/>
<path d="M48.5801 74.2258L50.6327 69.0986C49.1825 64.4011 49.2714 59.3631 50.8865 54.7197L51.2792 54.3963C54.7004 51.5788 57.7033 52.0917 60.4898 55.5383C60.9385 56.0986 61.4634 56.5934 62.049 57.0085C63.278 57.8707 65.2278 62.5553 62.6534 65.3013L60.5939 77.3151C60.8108 83.9481 55.9975 81.4505 48.5801 74.2258Z" fill="#3F3D56"/>
<path d="M78.0122 67.2523C77.7467 67.0515 77.4405 66.9114 77.115 66.8418C76.7896 66.7722 76.4528 66.7749 76.1285 66.8495C75.8041 66.9241 75.5001 67.069 75.2378 67.2738C74.9755 67.4787 74.7613 67.7385 74.6103 68.0351L69.4237 67.6313L68.4095 70.7233L75.7421 71.1907C76.2571 71.4114 76.8352 71.4354 77.3668 71.2583C77.8984 71.0812 78.3466 70.7153 78.6264 70.2298C78.9063 69.7444 78.9983 69.1731 78.8851 68.6243C78.7719 68.0756 78.4613 67.5874 78.0122 67.2523Z" fill="#FFB7B7"/>
<path d="M73.0465 72.2683L58.2673 69.5088L53.4604 61.4496C53.1516 60.5932 53.1955 59.6493 53.5827 58.8253C53.9698 58.0014 54.6684 57.365 55.5248 57.0561C56.3812 56.7473 57.3251 56.7912 58.1491 57.1784C58.973 57.5655 59.6094 58.2641 59.9183 59.1205L62.1729 65.3552L73.8611 67.2899L73.0465 72.2683Z" fill="#CCCCCC"/>
<path d="M46.0619 42.736C49.3565 42.736 52.0273 40.0652 52.0273 36.7706C52.0273 33.476 49.3565 30.8052 46.0619 30.8052C42.7672 30.8052 40.0964 33.476 40.0964 36.7706C40.0964 40.0652 42.7672 42.736 46.0619 42.736Z" fill="#2F2E41"/>
<path d="M40.9165 41.7103C41.6886 42.2684 42.5831 42.6334 43.5252 42.7749C44.4673 42.9163 45.4296 42.8301 46.3316 42.5234C47.2335 42.2167 48.0489 41.6985 48.7095 41.0121C49.3702 40.3257 49.8568 39.491 50.1287 38.578C50.0258 39.3962 49.7544 40.1842 49.3316 40.8923C48.9088 41.6003 48.3437 42.213 47.6722 42.6917C47.0007 43.1703 46.2372 43.5045 45.4299 43.6732C44.6227 43.8419 43.7892 43.8414 42.9822 43.6718C42.1752 43.5021 41.4121 43.167 40.7411 42.6875C40.0701 42.2081 39.5058 41.5947 39.0839 40.8862C38.6619 40.1776 38.3914 39.3893 38.2895 38.5709C38.1876 37.7526 38.2564 36.922 38.4917 36.1316C38.3581 37.1935 38.5127 38.2718 38.9393 39.2533C39.366 40.2349 40.0489 41.0836 40.9165 41.7103Z" fill="#2F2E41"/>
<path d="M64.4586 41.7169C63.4172 39.8525 63.0187 39.0736 61.676 37.9399C60.4885 36.9372 59.028 36.6428 57.8499 37.5928C56.4563 36.9907 54.9056 36.8541 53.4282 37.2035C51.9508 37.5529 50.6255 38.3695 49.6491 39.532C48.6728 40.6946 48.0975 42.1411 48.0087 43.6566C47.9199 45.1722 48.3223 46.6759 49.1562 47.9445C49.9901 49.2132 51.211 50.179 52.6375 50.6984C54.064 51.2179 55.6201 51.2634 57.0745 50.8281C58.5289 50.3929 59.8041 49.5001 60.7107 48.2823C61.6173 47.0646 62.1069 45.5869 62.1068 44.0687C62.1057 43.8021 62.0897 43.5358 62.0587 43.271C63.0827 43.1272 63.4346 41.8607 64.4586 41.7169Z" fill="#2F2E41"/>
<path d="M247.845 86.3459C247.864 85.9344 247.974 85.5322 248.165 85.1676C248.357 84.803 248.627 84.4849 248.954 84.2357C249.282 83.9865 249.661 83.8122 250.064 83.7251C250.466 83.6381 250.883 83.6403 251.285 83.7318L255.011 78.4805L258.755 79.9666L253.388 87.3085C253.19 87.9731 252.755 88.5418 252.165 88.9069C251.575 89.272 250.872 89.4082 250.189 89.2895C249.506 89.1708 248.89 88.8056 248.457 88.2631C248.025 87.7206 247.807 87.0384 247.845 86.3459Z" fill="#A0616A"/>
<path d="M251.932 81.8299L258.558 70.6873L255.858 63.4894L259.535 53.6858L259.67 53.744C259.759 53.782 261.848 54.7142 262.157 58.0523L266.382 71.3297L255.107 85.9568L251.932 81.8299Z" fill="#3F3D56"/>
<path d="M215.951 40.8662C216.359 40.9174 216.752 41.0576 217.101 41.277C217.449 41.4964 217.746 41.7895 217.969 42.1358C218.192 42.4821 218.336 42.8731 218.392 43.2812C218.448 43.6894 218.413 44.1048 218.291 44.4982L223.239 48.6193L221.467 52.2367L214.562 46.3187C213.915 46.0696 213.382 45.5916 213.063 44.9755C212.745 44.3594 212.664 43.6479 212.835 42.9758C213.006 42.3037 213.418 41.7177 213.992 41.3289C214.566 40.94 215.263 40.7754 215.951 40.8662Z" fill="#A0616A"/>
<path d="M220.137 45.2908L230.734 52.7576L238.119 50.623L247.609 55.0462L247.541 55.1769C247.496 55.2626 246.405 57.2731 243.053 57.3236L229.489 60.5091L215.777 48.1369L220.137 45.2908Z" fill="#3F3D56"/>
<path d="M239.528 136.091H235.844L234.091 121.881L239.529 121.881L239.528 136.091Z" fill="#A0616A"/>
<path d="M233.212 135.038H240.317V139.512H228.739C228.739 138.924 228.854 138.342 229.079 137.8C229.304 137.257 229.634 136.764 230.049 136.348C230.464 135.933 230.958 135.603 231.5 135.379C232.043 135.154 232.625 135.038 233.212 135.038Z" fill="#2F2E41"/>
<path d="M254.252 136.091H250.568L248.816 121.881L254.253 121.881L254.252 136.091Z" fill="#A0616A"/>
<path d="M247.937 135.038H255.042V139.512H243.463C243.463 138.924 243.579 138.342 243.804 137.8C244.028 137.257 244.358 136.764 244.773 136.348C245.189 135.933 245.682 135.603 246.225 135.379C246.767 135.154 247.349 135.038 247.937 135.038Z" fill="#2F2E41"/>
<path d="M255.562 84.2236L255.262 105.258L254.961 132.904L248.35 132.303L245.045 94.14L240.838 132.303H234.013L233.325 93.8393L235.73 85.4254L255.562 84.2236Z" fill="#2F2E41"/>
<path d="M235.071 85.5539L234.063 85.5103L238.741 59.7399L236.826 51.9507C236.727 51.5455 236.779 51.1178 236.974 50.7487C237.169 50.3796 237.492 50.0948 237.883 49.9482L241.329 48.6559L242.546 45.3076L252.152 46.3427L252.389 48.9595C253.43 49.2934 262.002 52.1482 261.41 55.401C260.827 58.6117 257.38 68.713 257.205 69.2249L256.601 83.7113L256.527 83.7485C256.437 83.7932 249.816 87.0488 242.623 87.0482C240.028 87.0916 237.454 86.5822 235.071 85.5539Z" fill="#3F3D56"/>
<path d="M246.973 43.6505C250.793 43.6505 253.89 40.5539 253.89 36.7341C253.89 32.9142 250.793 29.8176 246.973 29.8176C243.153 29.8176 240.057 32.9142 240.057 36.7341C240.057 40.5539 243.153 43.6505 246.973 43.6505Z" fill="#A0616A"/>
<path d="M252.575 43.4295C251.257 44.8336 248.809 44.0798 248.638 42.1617C248.624 42.0127 248.625 41.8629 248.641 41.7141C248.729 40.8645 249.22 40.0931 249.103 39.196C249.076 38.9727 248.993 38.7599 248.861 38.5778C247.81 37.1712 245.345 39.2069 244.354 37.9336C243.746 37.1528 244.46 35.9236 243.994 35.051C243.378 33.8992 241.555 34.4674 240.411 33.8366C239.139 33.1349 239.215 31.1828 240.052 29.9954C241.074 28.5474 242.865 27.7747 244.633 27.6634C246.402 27.552 248.158 28.0301 249.809 28.6735C251.685 29.4046 253.545 30.415 254.7 32.0645C256.104 34.0705 256.239 36.7673 255.537 39.113C255.109 40.5399 253.652 42.2829 252.575 43.4295Z" fill="#2F2E41"/>
<path d="M177.639 134.18L178.666 131.537L168.961 126.316L167.444 130.217L177.639 134.18Z" fill="#FFB8B8"/>
<path d="M183.144 127.285C182.709 127.116 182.244 127.034 181.777 127.044C181.309 127.054 180.849 127.156 180.421 127.344C179.993 127.533 179.607 127.803 179.283 128.141C178.96 128.479 178.707 128.877 178.538 129.313L177.845 131.095L176.776 133.845L176.515 134.519L179.939 135.851L183.252 127.328L183.144 127.285Z" fill="#2F2E41"/>
<path d="M176.776 129.094L176.33 130.279L175.214 133.237L175.188 133.311C172.346 133.676 169.231 132.96 166.35 131.848C165.197 131.404 164.068 130.9 162.967 130.339C161.338 129.516 159.879 128.647 158.715 127.904C156.963 126.779 155.879 125.934 155.879 125.934C155.879 125.934 155.593 126.193 155.075 126.637C154.381 127.231 153.271 128.158 151.866 129.25C151.33 129.67 150.755 130.108 150.14 130.566C145.606 133.929 139.788 124.956 139.788 124.956C139.788 124.956 141.424 123.914 141.852 123.712C143.228 123.061 146.462 121.524 149.252 120.158C150.689 119.454 152.007 118.793 152.892 118.323C156.025 116.655 159.92 119.812 159.92 119.812L176.776 129.094Z" fill="#2F2E41"/>
<path opacity="0.14" d="M176.776 129.094L176.33 130.279L175.214 133.237L175.188 133.311C172.346 133.676 169.231 132.96 166.35 131.848C165.197 131.404 164.068 130.9 162.967 130.339C161.338 129.516 159.879 128.647 158.715 127.904C156.963 126.779 155.879 125.934 155.879 125.934C155.879 125.934 155.593 126.193 155.075 126.637C154.381 127.231 153.271 128.158 151.866 129.25C151.33 129.67 150.755 130.108 150.14 130.566C145.606 133.929 139.788 124.956 139.788 124.956C139.788 124.956 141.424 123.914 141.852 123.712C143.228 123.061 146.462 121.524 149.252 120.158C150.689 119.454 152.007 118.793 152.892 118.323C156.025 116.655 159.92 119.812 159.92 119.812L176.776 129.094Z" fill="black"/>
<path d="M131.428 104.217H118.012C117.736 104.217 117.472 104.107 117.277 103.912C117.082 103.717 116.972 103.452 116.971 103.176V97.3938C116.971 95.3388 117.788 93.3679 119.241 91.9148C120.694 90.4616 122.665 89.6453 124.72 89.6453C126.775 89.6453 128.746 90.4616 130.199 91.9148C131.652 93.3679 132.469 95.3388 132.469 97.3938V103.176C132.468 103.452 132.358 103.717 132.163 103.912C131.968 104.107 131.704 104.217 131.428 104.217Z" fill="#2F2E41"/>
<path d="M144.186 111.48C143.873 111.535 143.577 111.658 143.317 111.84C143.057 112.021 142.841 112.258 142.682 112.533C142.524 112.807 142.427 113.113 142.4 113.429C142.373 113.745 142.415 114.063 142.524 114.361L138.876 117.716L140.374 120.43L145.459 115.62C145.947 115.404 146.339 115.016 146.561 114.531C146.782 114.045 146.818 113.495 146.661 112.985C146.504 112.474 146.165 112.039 145.709 111.762C145.253 111.485 144.711 111.385 144.186 111.48Z" fill="#FFB8B8"/>
<path d="M133.209 126.735C133.044 126.735 132.879 126.728 132.714 126.714C131.73 126.632 130.783 126.301 129.962 125.752C129.141 125.204 128.472 124.456 128.019 123.578L122.175 112.33C121.792 111.593 121.708 110.736 121.94 109.939C122.173 109.141 122.704 108.464 123.422 108.048C124.141 107.632 124.993 107.509 125.8 107.705C126.607 107.901 127.308 108.4 127.756 109.1L133.148 121.197L140.485 115.236L144.733 116.89L137.559 124.81C137.007 125.415 136.336 125.899 135.587 126.231C134.838 126.562 134.028 126.734 133.209 126.735Z" fill="#40C4FF"/>
<path d="M176.819 137.898L178.047 135.341L168.771 129.39L166.959 133.163L176.819 137.898Z" fill="#FFB8B8"/>
<path d="M182.838 131.446C182.417 131.243 181.96 131.126 181.493 131.1C181.026 131.074 180.559 131.141 180.118 131.296C179.677 131.451 179.271 131.691 178.923 132.003C178.575 132.315 178.291 132.692 178.089 133.114L177.261 134.837L175.985 137.497L175.672 138.149L178.984 139.74L182.942 131.497L182.838 131.446Z" fill="#2F2E41"/>
<path d="M176.35 132.76L175.813 133.907L174.474 136.77L174.442 136.842C171.581 136.988 168.53 136.035 165.743 134.705C164.627 134.173 163.54 133.584 162.486 132.94C160.925 131.994 159.537 131.016 158.433 130.185C156.773 128.929 155.757 128.004 155.757 128.004C155.757 128.004 155.452 128.24 154.902 128.643C154.164 129.182 152.986 130.021 151.501 131.002C150.935 131.379 150.327 131.772 149.679 132.181C144.9 135.186 138.105 138.845 132.324 139.618C122.173 140.976 124.562 127.428 124.562 127.428L132.641 123.232L136.071 123.929L139.89 124.701L141.243 124.976C141.243 124.976 141.5 124.879 141.942 124.711C143.364 124.167 146.707 122.883 149.593 121.736C151.08 121.144 152.445 120.586 153.363 120.186C156.615 118.764 160.256 122.21 160.256 122.21L176.35 132.76Z" fill="#2F2E41"/>
<path d="M109.778 139.941C110.087 139.87 110.377 139.733 110.627 139.538C110.877 139.343 111.081 139.095 111.225 138.813C111.369 138.53 111.449 138.22 111.46 137.903C111.471 137.586 111.413 137.27 111.289 136.979L114.758 133.439L113.122 130.806L108.292 135.873C107.816 136.114 107.444 136.521 107.248 137.018C107.052 137.514 107.045 138.066 107.228 138.567C107.411 139.069 107.772 139.485 108.242 139.739C108.712 139.992 109.258 140.064 109.778 139.941Z" fill="#FFB8B8"/>
<path d="M126.619 104.475C129.607 104.475 132.029 102.053 132.029 99.066C132.029 96.0785 129.607 93.6567 126.619 93.6567C123.632 93.6567 121.21 96.0785 121.21 99.066C121.21 102.053 123.632 104.475 126.619 104.475Z" fill="#FFB8B8"/>
<path d="M119.582 114.081L124.294 127.44L124.266 127.487C123.61 128.571 123.396 129.444 123.646 130.014C123.712 130.159 123.809 130.288 123.93 130.392C124.05 130.496 124.192 130.573 124.345 130.617L135.495 122.823L135.105 119.699L135.127 119.664C136.204 117.939 136.553 116.378 136.164 115.022C135.811 113.926 135.05 113.007 134.037 112.457L133.998 112.427L128.437 105.657L121.002 106.978L119.582 114.081Z" fill="#40C4FF"/>
<path d="M112.417 137.53L109.26 133.644L116.87 121.083L120.417 110.116C120.611 109.517 120.931 108.966 121.356 108.501C121.78 108.036 122.3 107.668 122.879 107.421C123.458 107.173 124.083 107.053 124.713 107.068C125.342 107.083 125.961 107.232 126.528 107.507C127.095 107.781 127.596 108.174 127.998 108.658C128.401 109.142 128.694 109.707 128.86 110.315C129.025 110.923 129.058 111.559 128.957 112.18C128.856 112.802 128.623 113.394 128.273 113.918L121.76 123.676L112.417 137.53Z" fill="#40C4FF"/>
<path d="M134.302 97.9719H126.099L126.014 96.7942L125.594 97.9719H124.331L124.164 95.6377L123.33 97.9719H120.886V97.8563C120.888 96.2312 121.535 94.6732 122.684 93.5241C123.833 92.375 125.391 91.7286 127.016 91.7268H128.172C129.797 91.7286 131.355 92.375 132.504 93.5241C133.654 94.6732 134.3 96.2312 134.302 97.8563V97.9719Z" fill="#2F2E41"/>
<path d="M126.031 105.296C125.97 105.296 125.908 105.291 125.847 105.28L119.84 104.22V94.293H126.453L126.289 94.4838C124.011 97.1402 125.727 101.447 126.953 103.779C127.043 103.949 127.083 104.142 127.069 104.335C127.055 104.527 126.986 104.712 126.871 104.867C126.775 105 126.649 105.108 126.503 105.183C126.357 105.258 126.195 105.296 126.031 105.296Z" fill="#2F2E41"/>
<path d="M215.774 87.5112V101.497H153.818L144.871 112.231L145.893 101.497H141.54V87.5112H215.774Z" fill="#F0F0F0"/>
<path d="M167.298 97.0162C168.698 97.0162 169.833 95.8813 169.833 94.4815C169.833 93.0816 168.698 91.9468 167.298 91.9468C165.898 91.9468 164.764 93.0816 164.764 94.4815C164.764 95.8813 165.898 97.0162 167.298 97.0162Z" fill="white"/>
<path d="M158.744 97.0162C160.144 97.0162 161.278 95.8813 161.278 94.4815C161.278 93.0816 160.144 91.9468 158.744 91.9468C157.344 91.9468 156.209 93.0816 156.209 94.4815C156.209 95.8813 157.344 97.0162 158.744 97.0162Z" fill="white"/>
<path d="M150.189 97.0162C151.589 97.0162 152.724 95.8813 152.724 94.4815C152.724 93.0816 151.589 91.9468 150.189 91.9468C148.789 91.9468 147.654 93.0816 147.654 94.4815C147.654 95.8813 148.789 97.0162 150.189 97.0162Z" fill="white"/>
<path d="M288.955 139.789H0.316836C0.232806 139.789 0.152217 139.756 0.092799 139.696C0.0333806 139.637 0 139.556 0 139.472C0 139.388 0.0333806 139.308 0.092799 139.248C0.152217 139.189 0.232806 139.156 0.316836 139.156H288.955C289.039 139.156 289.119 139.189 289.179 139.248C289.238 139.308 289.272 139.388 289.272 139.472C289.272 139.556 289.238 139.637 289.179 139.696C289.119 139.756 289.039 139.789 288.955 139.789Z" fill="#CACACA"/>
</g>
<defs>
<clipPath id="clip0_25_2692">
<rect width="289.272" height="140" fill="white"/>
</clipPath>
</defs>
</svg>
