<svg width="190" height="140" viewBox="0 0 190 140" fill="none" xmlns="http://www.w3.org/2000/svg">
<g clip-path="url(#clip0_25_2743)">
<path d="M18.6042 37.2083C28.879 37.2083 37.2083 28.879 37.2083 18.6042C37.2083 8.32937 28.879 0 18.6042 0C8.32937 0 0 8.32937 0 18.6042C0 28.879 8.32937 37.2083 18.6042 37.2083Z" fill="#F0F0F0"/>
<path d="M170.576 78.8995C180.85 78.8995 189.18 70.5701 189.18 60.2953C189.18 50.0205 180.85 41.6912 170.576 41.6912C160.301 41.6912 151.971 50.0205 151.971 60.2953C151.971 70.5701 160.301 78.8995 170.576 78.8995Z" fill="#F0F0F0"/>
<path d="M112.458 138.494L109.187 137.116L106.943 120.72H77.0635L74.6314 137.049L71.7052 138.512C71.5651 138.582 71.4529 138.698 71.3865 138.84C71.3202 138.981 71.3037 139.141 71.3396 139.294C71.3756 139.446 71.462 139.582 71.5847 139.679C71.7075 139.776 71.8594 139.829 72.0159 139.829H112.188C112.349 139.829 112.504 139.773 112.628 139.672C112.752 139.57 112.838 139.429 112.869 139.272C112.901 139.114 112.878 138.951 112.803 138.809C112.727 138.667 112.606 138.556 112.458 138.494Z" fill="#E6E6E6"/>
<path d="M165.556 122.901H18.7786C18.0085 122.9 17.2705 122.593 16.7266 122.047C16.1827 121.502 15.8772 120.764 15.8772 119.993V99.2959H168.458V119.993C168.458 120.764 168.152 121.502 167.608 122.047C167.064 122.593 166.326 122.9 165.556 122.901Z" fill="#CCCCCC"/>
<path d="M168.611 109.078H15.7432V20.5174C15.7442 19.588 16.1139 18.697 16.7711 18.0398C17.4283 17.3827 18.3193 17.013 19.2487 17.012H165.105C166.035 17.013 166.926 17.3827 167.583 18.0398C168.24 18.697 168.61 19.588 168.611 20.5174V109.078Z" fill="#3F3D56"/>
<path d="M159.481 102.65H24.8734C24.1569 102.649 23.47 102.364 22.9633 101.858C22.4567 101.351 22.1717 100.664 22.1709 99.9477V26.1421C22.1717 25.4256 22.4567 24.7386 22.9633 24.2319C23.47 23.7253 24.1569 23.4403 24.8734 23.4395H159.481C160.197 23.4403 160.884 23.7253 161.391 24.2319C161.898 24.7386 162.183 25.4256 162.183 26.1421V99.9477C162.183 100.664 161.898 101.351 161.391 101.858C160.884 102.364 160.197 102.649 159.481 102.65Z" fill="white"/>
<path d="M129.928 140H54.2901C54.2127 140.002 54.1368 139.978 54.0744 139.932C54.012 139.886 53.9666 139.82 53.9452 139.746C53.9318 139.695 53.9302 139.642 53.9406 139.591C53.951 139.539 53.973 139.491 54.005 139.45C54.037 139.408 54.0781 139.374 54.1251 139.351C54.1721 139.328 54.2239 139.316 54.2763 139.316H129.9C129.982 139.313 130.062 139.338 130.128 139.387C130.194 139.435 130.241 139.504 130.262 139.583C130.273 139.633 130.273 139.685 130.261 139.735C130.25 139.785 130.227 139.832 130.195 139.872C130.163 139.912 130.122 139.944 130.076 139.966C130.03 139.989 129.979 140 129.928 140Z" fill="#CCCCCC"/>
<path d="M144.223 89.5115H115.863C115.792 89.5175 115.722 89.4955 115.667 89.4503C115.613 89.4052 115.578 89.3404 115.571 89.2699V66.3937C115.578 66.3232 115.613 66.2585 115.667 66.2133C115.722 66.1681 115.792 66.1461 115.863 66.1521H144.223C144.294 66.1461 144.364 66.1681 144.419 66.2133C144.473 66.2585 144.508 66.3232 144.515 66.3937V89.2699C144.508 89.3404 144.473 89.4052 144.419 89.4504C144.364 89.4955 144.294 89.5175 144.223 89.5115Z" fill="#F0F0F0"/>
<path d="M141.141 68.6831H118.946C118.868 68.6832 118.794 68.714 118.739 68.7688C118.684 68.8235 118.654 68.8977 118.654 68.9751V86.1731C118.654 86.2505 118.684 86.3247 118.739 86.3795C118.794 86.4342 118.868 86.465 118.946 86.4651H141.141C141.218 86.465 141.292 86.4342 141.347 86.3795C141.402 86.3247 141.433 86.2505 141.433 86.1731V68.9751C141.433 68.8977 141.402 68.8235 141.347 68.7688C141.292 68.714 141.218 68.6832 141.141 68.6831Z" fill="white"/>
<path d="M129.495 80.3366C131.053 80.3366 132.317 79.0732 132.317 77.5146C132.317 75.9561 131.053 74.6926 129.495 74.6926C127.936 74.6926 126.673 75.9561 126.673 77.5146C126.673 79.0732 127.936 80.3366 129.495 80.3366Z" fill="#FFB8B8"/>
<path d="M133.624 86.465H127.367L127.571 81.8651L127.62 81.814L128.322 81.072H130.556L131.385 81.8742L131.451 81.939L133.215 83.6291L133.624 86.465Z" fill="#40C4FF"/>
<path d="M128.443 86.4652H123.709C123.697 85.4268 123.691 84.8051 123.691 84.8051L123.965 84.6383L123.966 84.6376H123.967L126.983 82.8062L127.617 81.7776L127.62 81.8139L127.806 83.9822C127.806 83.9822 128.114 84.9764 128.443 86.4652Z" fill="#2F2E41"/>
<path d="M136.399 86.4652H131.385C131.461 83.437 131.052 81.7776 131.262 81.7776L131.385 81.8743L132.862 83.0412L134.81 83.7557H134.811L136.154 84.2483L136.39 84.3346V84.4455C136.39 84.7116 136.391 85.4391 136.399 86.4652Z" fill="#2F2E41"/>
<path d="M126.825 78.3975C126.825 78.3975 127.065 77.9764 127.009 76.5698C126.953 75.1631 129.095 75.9587 130.885 75.8245C132.675 75.6903 132.296 78.1729 132.296 78.1729C132.296 78.1729 132.425 78.0254 132.702 76.8272C132.978 75.629 132.35 74.4349 132.35 74.4349C132.166 73.1759 131.169 73.5794 131.169 73.5794C131.295 73.6114 131.405 73.6892 131.476 73.7976C131.548 73.906 131.577 74.0372 131.557 74.1656C131.151 73.4535 130.154 73.857 130.154 73.857C128.826 73.0232 127.479 74.1213 127.479 74.1213C125.874 74.4856 126.815 75.7622 126.815 75.7622C125.201 76.578 126.825 78.3975 126.825 78.3975Z" fill="#2F2E41"/>
<path d="M124.341 86.465H122.396C122.411 86.2253 122.412 85.985 122.398 85.7453C122.281 85.2825 123.915 84.6569 123.965 84.6381L123.966 84.6375H123.967L124.278 84.8049L124.341 86.465Z" fill="#2F2E41"/>
<path d="M136.75 86.465H134.707L134.452 83.947L134.738 83.738C134.738 83.738 134.764 83.7439 134.81 83.7556H134.811C135.278 83.8617 135.729 84.0273 136.154 84.2481C136.244 84.2987 136.324 84.3656 136.39 84.4454C136.43 84.4936 136.45 84.5555 136.445 84.6181C136.435 84.7122 136.554 85.4053 136.75 86.465Z" fill="#2F2E41"/>
<path d="M144.131 60.3236H115.771C115.7 60.3295 115.63 60.3075 115.575 60.2623C115.521 60.2171 115.486 60.1523 115.479 60.0818V37.1975C115.486 37.127 115.521 37.0622 115.575 37.017C115.63 36.9718 115.7 36.9498 115.771 36.9558H144.131C144.202 36.9498 144.272 36.9718 144.326 37.017C144.381 37.0622 144.416 37.127 144.423 37.1975V60.0818C144.416 60.1523 144.381 60.2171 144.326 60.2623C144.272 60.3075 144.202 60.3295 144.131 60.3236Z" fill="#F0F0F0"/>
<path d="M141.048 39.4868H118.853C118.776 39.4869 118.701 39.5177 118.647 39.5725C118.592 39.6272 118.561 39.7014 118.561 39.7789V56.9768C118.561 57.0542 118.592 57.1284 118.647 57.1832C118.701 57.2379 118.776 57.2687 118.853 57.2689H141.048C141.126 57.2687 141.2 57.2379 141.255 57.1832C141.309 57.1284 141.34 57.0542 141.34 56.9768V39.7789C141.34 39.7014 141.309 39.6272 141.255 39.5725C141.2 39.5177 141.126 39.4869 141.048 39.4868Z" fill="white"/>
<path d="M135.414 57.2689C135.539 56.8178 135.636 56.4291 135.686 56.1539C135.702 56.0691 135.703 55.9823 135.691 55.8969C135.504 54.5672 132.128 53.4432 131.695 53.3043L131.591 52.1465L127.341 51.689L126.803 53.1699L125.278 53.7417C125.223 53.7621 125.17 53.7891 125.122 53.8222C124.994 53.9085 124.895 54.032 124.84 54.176C124.784 54.32 124.774 54.4776 124.811 54.6275L125.46 57.2689L135.414 57.2689Z" fill="#40C4FF"/>
<path d="M126.605 57.2688H123.307C123.425 56.5329 123.531 55.882 123.6 55.4679C123.852 53.961 124.95 53.8325 125.122 53.8221C125.135 53.8208 125.144 53.8208 125.144 53.8208H125.838L126.605 57.2688Z" fill="#40C4FF"/>
<path d="M135.414 57.2689H136.213C136.174 56.7709 135.993 56.2946 135.691 55.8969C135.539 55.6966 135.344 55.5339 135.119 55.4212L135.059 55.3953L134.356 57.2689H135.414Z" fill="#40C4FF"/>
<path d="M129.3 50.9561C130.99 50.9561 132.36 49.5862 132.36 47.8964C132.36 46.2066 130.99 44.8367 129.3 44.8367C127.61 44.8367 126.24 46.2066 126.24 47.8964C126.24 49.5862 127.61 50.9561 129.3 50.9561Z" fill="#A0616A"/>
<path d="M127.246 46.4058C127.563 46.7806 128.099 46.8863 128.593 46.9293C129.749 46.9932 130.909 46.8986 132.039 46.648C132.11 47.3269 131.918 48.0588 132.318 48.6173C132.506 47.9412 132.615 47.2458 132.643 46.5448C132.673 46.2441 132.633 45.9405 132.528 45.6572C132.472 45.5152 132.377 45.3919 132.254 45.3013C132.131 45.2107 131.985 45.1563 131.833 45.1445C132.061 44.9716 132.328 44.8575 132.61 44.8122L131.639 44.324L131.888 44.0679L130.129 43.9602L130.639 43.6366C129.872 43.5313 129.096 43.5069 128.324 43.5638C127.963 43.564 127.609 43.6623 127.3 43.8484C127.01 44.0561 126.842 44.4688 127.022 44.7737C126.796 44.8107 126.584 44.9048 126.405 45.047C126.226 45.1892 126.086 45.3747 125.998 45.5861C125.888 45.9221 125.861 46.28 125.921 46.6287C125.987 47.1881 126.117 47.7381 126.308 48.268" fill="#2F2E41"/>
<path d="M39.8389 88.8717V37.125C39.857 36.9645 39.9373 36.8173 40.0625 36.7152C40.1877 36.613 40.3479 36.5639 40.5089 36.5784H105.573C105.734 36.5639 105.894 36.613 106.019 36.7152C106.144 36.8174 106.224 36.9645 106.243 37.125V88.8717C106.224 89.0323 106.144 89.1794 106.019 89.2816C105.894 89.3837 105.734 89.4328 105.573 89.4184H40.5089C40.3479 89.4328 40.1877 89.3837 40.0625 89.2816C39.9373 89.1794 39.857 89.0323 39.8389 88.8717Z" fill="#E4E4E4"/>
<path d="M46.9111 43.055V82.5101C46.9114 82.6878 46.9821 82.858 47.1077 82.9836C47.2333 83.1092 47.4035 83.1799 47.5811 83.1801H98.5006C98.6782 83.1799 98.8485 83.1092 98.974 82.9836C99.0996 82.858 99.1703 82.6878 99.1706 82.5101V43.055C99.1703 42.8774 99.0996 42.7071 98.974 42.5815C98.8485 42.456 98.6782 42.3853 98.5006 42.385H47.5811C47.4035 42.3853 47.2333 42.456 47.1077 42.5815C46.9821 42.7071 46.9114 42.8774 46.9111 43.055Z" fill="white"/>
<path d="M68.0308 83.1802H78.2787L77.64 73.5949L73.9431 74.448L70.3475 73.0648L70.2522 73.0291L70.2462 73.0261C70.2449 73.029 70.2439 73.032 70.2432 73.035C70.1866 73.2629 69.0581 77.7816 68.0308 83.1802Z" fill="#40C4FF"/>
<path d="M61.8547 75.1596L62.8121 83.18H71.4491L70.3474 73.0647L70.3369 72.9663L70.2522 73.0288L70.2432 73.0349L68.1125 74.5894L61.8547 75.1596Z" fill="#2F2E41"/>
<path d="M76.7629 83.1801H84.4976L84.6093 76.8658L78.9173 74.9779L77.6399 73.5947C77.6399 73.5947 77.2364 77.7561 76.7629 83.1801Z" fill="#2F2E41"/>
<path d="M58.1311 83.1802H64.5407L64.1298 77.4347L61.8548 75.1597C61.8548 75.1597 60.0548 78.9354 58.1311 83.1802Z" fill="#2F2E41"/>
<path d="M82.6738 83.1803H86.0551C86.0402 81.34 86.0312 80.0685 86.0312 79.7097C86.0482 79.155 85.9272 78.6048 85.679 78.1085C85.4308 77.6121 85.0633 77.1852 84.6093 76.866L82.9016 77.4347L82.6738 83.1803Z" fill="#2F2E41"/>
<path d="M83.2012 70.5786H65.2844V63.0272C65.2844 60.4392 67.1077 57.3277 69.3488 56.0911C72.4943 54.3557 75.9331 54.3252 78.7834 56.0078C80.125 56.8022 81.2374 57.9313 82.0118 59.2846C82.7862 60.6378 83.196 62.1689 83.2012 63.7281V70.5786Z" fill="#2F2E41"/>
<path d="M80.276 67.0252C81.9903 63.8891 80.8377 59.9571 77.7017 58.2427C74.5656 56.5284 70.6336 57.681 68.9193 60.817C67.2049 63.9531 68.3575 67.8851 71.4935 69.5994C74.6296 71.3138 78.5616 70.1612 80.276 67.0252Z" fill="#FFB8B8"/>
<path d="M80.7487 64.2549H71.5163L71.4945 64.15C71.3876 63.5997 71.2495 63.0559 71.0809 62.5213C70.7143 63.0584 70.3762 63.6144 70.068 64.1871L70.0304 64.2549H68.2356C68.1254 64.2548 68.0165 64.2317 67.9158 64.1872C67.8151 64.1426 67.7247 64.0775 67.6506 63.9961C67.6017 63.9424 67.4875 63.8165 67.9602 58.0458C67.9733 57.9084 68.0217 57.7767 68.1009 57.6636C68.1801 57.5506 68.2874 57.46 68.4121 57.4009C72.463 55.5098 76.5681 55.5598 80.6142 57.5503H80.6864L80.7117 57.6507C81.5099 63.7929 81.3951 63.9255 81.3461 63.9821C81.2719 64.0678 81.1802 64.1364 81.0771 64.1835C80.974 64.2306 80.862 64.2549 80.7487 64.2549Z" fill="#2F2E41"/>
</g>
<defs>
<clipPath id="clip0_25_2743">
<rect width="189.18" height="140" fill="white"/>
</clipPath>
</defs>
</svg>
