<svg width="155" height="140" viewBox="0 0 155 140" fill="none" xmlns="http://www.w3.org/2000/svg">
<g clip-path="url(#clip0_25_2777)">
<path d="M106.695 139.647H62.8854C56.3144 139.647 50.9685 134.301 50.9685 127.73V11.9169C50.9685 5.34592 56.3144 0 62.8854 0H106.695C113.266 0 118.612 5.34592 118.612 11.9169C119.428 58.424 120.818 110.505 118.612 127.73C118.612 134.301 113.266 139.647 106.695 139.647Z" fill="#3F3D56"/>
<path d="M119.223 42.6001C118.945 42.6001 118.719 42.8262 118.719 43.1042V59.2368C118.719 59.5148 118.945 59.7409 119.223 59.7409C119.501 59.7409 119.727 59.5148 119.727 59.2368V43.1042C119.727 42.8262 119.501 42.6001 119.223 42.6001Z" fill="#3F3D56"/>
<path d="M117.478 11.9169V127.728C117.478 133.448 113.026 138.126 107.398 138.489H107.395C107.312 138.494 107.229 138.499 107.143 138.502C106.994 138.509 106.846 138.512 106.694 138.512C106.694 138.512 106.14 138.472 105.127 138.396C104.103 138.32 102.613 138.207 100.756 138.058C100.199 138.015 99.6112 137.967 98.9911 137.917C97.756 137.816 96.3999 137.705 94.9454 137.579C94.3657 137.531 93.7657 137.478 93.1532 137.426C90.0225 137.156 86.5162 136.841 82.8183 136.483C82.1932 136.425 81.563 136.364 80.9278 136.301C80.7614 136.284 52.103 129.079 52.103 127.728V11.9169C52.103 5.96046 56.9302 1.1333 62.8866 1.1333H69.3245C70.353 1.1333 71.1797 1.93488 71.268 2.96082C71.2755 3.02888 71.2831 3.09693 71.2957 3.16499C71.4822 4.19597 72.4275 4.91437 73.4761 4.91437H96.1049C97.1536 4.91437 98.0988 4.19597 98.2854 3.16499C98.298 3.09693 98.3055 3.02888 98.3131 2.96082C98.4013 1.93489 99.2281 1.1333 100.257 1.1333H106.694C112.651 1.1333 117.478 5.96046 117.478 11.9169Z" fill="white"/>
<path d="M50.7165 30.5007C50.4385 30.5007 50.2124 30.7268 50.2124 31.0049V35.038C50.2124 35.3161 50.4385 35.5422 50.7165 35.5422C50.9946 35.5422 51.2207 35.3161 51.2207 35.038V31.0049C51.2207 30.7268 50.9946 30.5007 50.7165 30.5007Z" fill="#3F3D56"/>
<path d="M50.7165 42.6001C50.4385 42.6001 50.2124 42.8262 50.2124 43.1042V50.9184C50.2124 51.1965 50.4385 51.4226 50.7165 51.4226C50.9946 51.4226 51.2207 51.1965 51.2207 50.9184V43.1042C51.2207 42.8262 50.9946 42.6001 50.7165 42.6001Z" fill="#3F3D56"/>
<path d="M50.7165 53.6912C50.4385 53.6912 50.2124 53.9173 50.2124 54.1953V62.0095C50.2124 62.2875 50.4385 62.5137 50.7165 62.5137C50.9946 62.5137 51.2207 62.2875 51.2207 62.0095V54.1953C51.2207 53.9173 50.9946 53.6912 50.7165 53.6912Z" fill="#3F3D56"/>
<path d="M69.1591 2.89893H59.4979C59.451 2.89893 59.4131 2.93688 59.4131 2.9837V4.07451C59.4131 4.12132 59.451 4.15928 59.4979 4.15928H69.1591C69.2059 4.15928 69.2439 4.12132 69.2439 4.07451V2.9837C69.2439 2.93688 69.2059 2.89893 69.1591 2.89893Z" fill="#E6E6E6"/>
<path d="M101.85 4.15915C102.406 4.15915 102.858 3.70772 102.858 3.15086C102.858 2.594 102.406 2.14258 101.85 2.14258C101.293 2.14258 100.841 2.594 100.841 3.15086C100.841 3.70772 101.293 4.15915 101.85 4.15915Z" fill="#E6E6E6"/>
<path d="M104.622 4.15915C105.179 4.15915 105.631 3.70772 105.631 3.15086C105.631 2.594 105.179 2.14258 104.622 2.14258C104.065 2.14258 103.614 2.594 103.614 3.15086C103.614 3.70772 104.065 4.15915 104.622 4.15915Z" fill="#E6E6E6"/>
<path d="M107.395 4.15915C107.952 4.15915 108.403 3.70772 108.403 3.15086C108.403 2.594 107.952 2.14258 107.395 2.14258C106.838 2.14258 106.387 2.594 106.387 3.15086C106.387 3.70772 106.838 4.15915 107.395 4.15915Z" fill="#E6E6E6"/>
<path d="M3.91187 139.675C3.91187 139.855 4.05671 140 4.23708 140H154.073C154.254 140 154.399 139.855 154.399 139.675C154.399 139.494 154.254 139.35 154.073 139.35H4.23708C4.05671 139.35 3.91187 139.494 3.91187 139.675Z" fill="#CCCCCC"/>
<path d="M51.6862 137.539L48.6136 137.539L47.1519 125.687L51.6869 125.687L51.6862 137.539Z" fill="#FFB6B6"/>
<path d="M41.1589 137.469C41.0632 137.63 41.0127 138.15 41.0127 138.338C41.0127 138.914 41.4796 139.381 42.0556 139.381H51.5713C51.9642 139.381 52.2828 139.062 52.2828 138.669V138.273C52.2828 138.273 52.7535 137.082 51.7844 135.615C51.7844 135.615 50.5798 136.764 48.7799 134.964L48.2492 134.002L44.4071 136.812L42.2775 137.074C41.8116 137.132 41.3985 137.066 41.1589 137.469Z" fill="#2F2E41"/>
<path d="M34.6938 121.077L31.6211 121.067L30.197 109.21L34.732 109.225L34.6938 121.077Z" fill="#FFB6B6"/>
<path d="M24.1667 120.974C24.0706 121.135 24.0184 121.654 24.0178 121.842C24.016 122.418 24.4814 122.886 25.0574 122.888L34.5731 122.918C34.966 122.919 35.2855 122.602 35.2868 122.209L35.2881 121.813C35.2881 121.813 35.7626 120.624 34.7981 119.153C34.7981 119.153 33.5899 120.298 31.7957 118.493L31.268 117.53L27.4171 120.327L25.2867 120.583C24.8206 120.638 24.4077 120.571 24.1667 120.974Z" fill="#2F2E41"/>
<path d="M47.2048 65.5872L43.3789 65.8604C43.3789 65.8604 30.4267 73.2246 29.3336 74.8643C28.2405 76.504 26.7374 78.8268 28.1038 81.2864C29.4702 83.7459 28.4303 113.526 28.4303 113.526L34.9597 112.049L39.1431 80.8908L47.888 79.661C47.888 79.661 50.8941 86.1466 49.801 91.5121C48.7079 96.8777 48.1613 100.157 48.1613 100.157L46.7949 131.857L52.1239 131.721L56.9062 102.343L65.1046 79.1145L54.4467 66.5436L47.2048 65.5872Z" fill="#2F2E41"/>
<path d="M66.0611 31.9736L58.136 32.7935L57.3161 35.5263L49.6643 39.6255L52.1238 56.8421L50.2109 59.8481L51.0307 62.8542C51.0307 62.8542 48.8445 63.1275 49.1178 64.7672L44.1987 65.587C44.1987 65.587 50.723 66.919 52.1066 73.4949C53.4902 80.0708 64.968 80.8906 64.968 80.8906L73.9862 52.7429L74.806 36.0728L68.5206 34.4331L66.0611 31.9736Z" fill="#E6E6E6"/>
<path d="M61.8844 30.9366C65.287 30.9366 68.0452 28.1783 68.0452 24.7758C68.0452 21.3733 65.287 18.615 61.8844 18.615C58.4819 18.615 55.7236 21.3733 55.7236 24.7758C55.7236 28.1783 58.4819 30.9366 61.8844 30.9366Z" fill="#FFB6B6"/>
<path d="M58.6825 30.3339C58.6825 30.3339 53.2169 30.0606 53.7635 25.6881C52.4107 21.0319 53.6081 18.0087 57.8627 16.9432C57.8627 16.9432 58.9558 16.6699 59.2291 16.6699C62.8235 16.6699 64.6947 17.763 64.6947 17.763C64.6947 17.763 64.4214 16.6807 64.6947 16.9486C64.9679 17.2165 65.2412 17.763 65.2412 17.763C65.2412 17.763 67.974 19.1294 67.974 21.8622C67.974 24.595 67.974 23.5019 67.974 23.5019C67.974 23.5019 67.4275 23.5019 66.8809 21.8622C66.3343 20.2226 62.7957 21.3157 62.7957 21.3157L63.055 21.8622L62.2351 21.589L61.4153 22.4088L60.8687 22.1355C60.8687 22.1355 58.6825 22.1355 58.9558 22.1355C59.2291 22.1355 59.0386 23.9927 59.0386 23.9927L57.0428 26.2347L59.2291 30.3339H58.6825Z" fill="#2F2E41"/>
<path d="M29.5635 62.951C28.0076 63.8002 27.1844 65.2912 27.7247 66.2813C28.2651 67.2714 29.9644 67.3856 31.5203 66.5365C32.2014 66.1648 32.742 65.6701 33.0894 65.1483L39.6369 61.4674L37.8442 58.4316L31.5799 62.3824C30.9531 62.3923 30.2445 62.5793 29.5635 62.951Z" fill="#FFB6B6"/>
<path d="M51.6438 39.7532C51.6438 39.7532 49.0771 38.7759 48.1928 39.9522C47.3085 41.1286 41.4666 55.4021 41.4666 55.4021L32.8955 59.8784L35.3058 64.0757L46.3428 60.4011L53.6248 47.0832L51.6438 39.7532Z" fill="#E6E6E6"/>
<path d="M132.581 86.6289V115.597C132.581 118.158 130.497 120.242 127.936 120.242H56.3364C53.7747 120.242 51.6907 118.158 51.6907 115.597V86.6289C51.6907 84.0672 53.7747 81.9832 56.3364 81.9832H127.936C130.497 81.9832 132.581 84.0672 132.581 86.6289Z" fill="white"/>
<path d="M132.581 86.6289V115.597C132.581 118.158 130.497 120.242 127.936 120.242H56.3364C53.7747 120.242 51.6907 118.158 51.6907 115.597V86.6289C51.6907 84.0672 53.7747 81.9832 56.3364 81.9832H127.936C130.497 81.9832 132.581 84.0672 132.581 86.6289ZM127.936 119.696C130.2 119.696 132.035 117.86 132.035 115.597V100.992C132.035 90.7956 123.769 82.5297 113.572 82.5297H56.3364C54.0725 82.5297 52.2372 84.365 52.2372 86.6289V115.597C52.2372 117.86 54.0725 119.696 56.3364 119.696H127.936Z" fill="#3F3D56"/>
<path d="M83.8312 99.4844H74.4794C74.2436 99.4844 74.0518 99.6761 74.0518 99.9119C74.0518 100.148 74.2436 100.34 74.4794 100.34H83.8312C84.0669 100.34 84.2587 100.148 84.2587 99.9119C84.2587 99.6761 84.0669 99.4844 83.8312 99.4844Z" fill="#40C4FF"/>
<path d="M98.0416 99.4844H88.6898C88.454 99.4844 88.2622 99.6761 88.2622 99.9119C88.2622 100.148 88.454 100.34 88.6898 100.34H98.0416C98.2774 100.34 98.4691 100.148 98.4691 99.9119C98.4691 99.6761 98.2774 99.4844 98.0416 99.4844Z" fill="#40C4FF"/>
<path d="M83.8312 104.159H74.4794C74.2436 104.159 74.0518 104.351 74.0518 104.587C74.0518 104.822 74.2436 105.014 74.4794 105.014H83.8312C84.0669 105.014 84.2587 104.822 84.2587 104.587C84.2587 104.351 84.0669 104.159 83.8312 104.159Z" fill="#40C4FF"/>
<path d="M98.0416 104.159H88.6898C88.454 104.159 88.2622 104.351 88.2622 104.587C88.2622 104.822 88.454 105.014 88.6898 105.014H98.0416C98.2774 105.014 98.4691 104.822 98.4691 104.587C98.4691 104.351 98.2774 104.159 98.0416 104.159Z" fill="#40C4FF"/>
<path d="M112.68 104.587C112.68 104.351 112.488 104.159 112.252 104.159H102.901C102.665 104.159 102.473 104.351 102.473 104.587C102.473 104.822 102.665 105.014 102.901 105.014H112.252C112.488 105.014 112.68 104.822 112.68 104.587Z" fill="#40C4FF"/>
<path d="M78.3656 95.7516C78.6013 95.7516 78.7931 95.5598 78.7931 95.324C78.7931 95.0882 78.6013 94.8965 78.3656 94.8965H69.0138C68.778 94.8965 68.5862 95.0882 68.5862 95.324C68.5862 95.5598 68.778 95.7516 69.0138 95.7516H78.3656Z" fill="#40C4FF"/>
<path d="M105.907 95.5778H115.258C115.494 95.5778 115.686 95.3859 115.686 95.1502C115.686 94.9144 115.494 94.7227 115.258 94.7227H105.907C105.671 94.7227 105.479 94.9144 105.479 95.1502C105.479 95.3859 105.671 95.5778 105.907 95.5778Z" fill="#40C4FF"/>
<path d="M82.3053 95.6676H101.694C101.929 95.6676 102.121 95.4758 102.121 95.24C102.121 95.0042 101.929 94.8125 101.694 94.8125H82.3053C82.0695 94.8125 81.8777 95.0042 81.8777 95.24C81.8777 95.4758 82.0695 95.6676 82.3053 95.6676Z" fill="#40C4FF"/>
<path d="M89.9337 108.406H80.5819C80.3461 108.406 80.1543 108.598 80.1543 108.834C80.1543 109.07 80.3461 109.261 80.5819 109.261H89.9337C90.1695 109.261 90.3612 109.07 90.3612 108.834C90.3612 108.598 90.1695 108.406 89.9337 108.406Z" fill="#40C4FF"/>
<path d="M120.137 86.4104V115.378C120.137 117.94 118.053 120.024 115.491 120.024H86.5234C83.9617 120.024 81.8777 117.94 81.8777 115.378V86.4104C81.8777 83.8487 83.9617 81.7646 86.5234 81.7646H115.491C118.053 81.7646 120.137 83.8487 120.137 86.4104Z" fill="white"/>
<path d="M120.137 86.4104V115.378C120.137 117.94 118.053 120.024 115.491 120.024H86.5234C83.9617 120.024 81.8777 117.94 81.8777 115.378V86.4104C81.8777 83.8487 83.9617 81.7646 86.5234 81.7646H115.491C118.053 81.7646 120.137 83.8487 120.137 86.4104ZM113.694 119.477C116.95 119.477 119.59 116.837 119.59 113.581V100.774C119.59 90.5772 111.324 82.3112 101.128 82.3112H86.5234C84.2595 82.3112 82.4243 84.1465 82.4243 86.4104V111.336C82.4243 115.832 86.069 119.477 90.5651 119.477L113.694 119.477Z" fill="#3F3D56"/>
<path d="M104.863 93.5956H95.5116C95.2758 93.5956 95.084 93.4038 95.084 93.168C95.084 92.9322 95.2758 92.7405 95.5116 92.7405H104.863C105.099 92.7405 105.291 92.9322 105.291 93.168C105.291 93.4038 105.099 93.5956 104.863 93.5956Z" fill="#40C4FF"/>
<path d="M104.863 102.713H95.5116C95.2758 102.713 95.084 102.521 95.084 102.285C95.084 102.05 95.2758 101.858 95.5116 101.858H104.863C105.099 101.858 105.291 102.05 105.291 102.285C105.291 102.521 105.099 102.713 104.863 102.713Z" fill="#40C4FF"/>
<path d="M100.218 115.284H90.8658C90.6301 115.284 90.4382 115.092 90.4382 114.856C90.4382 114.621 90.6301 114.429 90.8658 114.429H100.218C100.453 114.429 100.645 114.621 100.645 114.856C100.645 115.092 100.453 115.284 100.218 115.284Z" fill="#40C4FF"/>
<path d="M109.882 98.1574H90.4933C90.2575 98.1574 90.0657 97.9655 90.0657 97.7298C90.0657 97.494 90.2575 97.3022 90.4933 97.3022H109.882C110.117 97.3022 110.309 97.494 110.309 97.7298C110.309 97.9655 110.117 98.1574 109.882 98.1574Z" fill="#40C4FF"/>
<path d="M114.686 70.3588C114.686 61.3223 107.049 56.3512 98.3241 53.9967C87.1386 50.978 78.9464 57.0864 81.9619 70.3588C82.6454 73.3669 84.28 76.8802 86.3034 79.8854H102.36C107.723 76.3937 114.686 77.3729 114.686 70.3588Z" fill="#40C4FF"/>
<path d="M98.0838 87.4416C98.9972 85.7004 100.155 84.4442 101.431 83.488H86.3923C90.2629 89.017 95.396 92.5654 98.0838 87.4416Z" fill="#40C4FF"/>
<path d="M96.3486 60.6849C97.314 60.6849 98.0967 61.4675 98.0967 62.433V65.9292H94.6004V62.433C94.6004 61.4675 95.3831 60.6849 96.3486 60.6849ZM98.9707 65.9292V62.433C98.9707 60.9848 97.7967 59.8108 96.3486 59.8108C94.9004 59.8108 93.7264 60.9848 93.7264 62.433V65.9292C92.7609 65.9292 91.9783 66.7118 91.9783 67.6773V72.0476C91.9783 73.013 92.7609 73.7957 93.7264 73.7957H98.9707C99.9362 73.7957 100.719 73.013 100.719 72.0476V67.6773C100.719 66.7118 99.9362 65.9292 98.9707 65.9292ZM93.7264 66.8032H98.9707C99.4535 66.8032 99.8448 67.1946 99.8448 67.6773V72.0476C99.8448 72.5303 99.4534 72.9216 98.9707 72.9216H93.7264C93.2437 72.9216 92.8523 72.5303 92.8523 72.0476V67.6773C92.8523 67.1946 93.2437 66.8032 93.7264 66.8032Z" fill="white"/>
<path d="M71.367 81.0392C71.1562 82.7991 71.8933 84.3345 73.0133 84.4687C74.1332 84.6028 75.212 83.2848 75.4228 81.5249C75.515 80.7545 75.4256 80.0272 75.2021 79.4415L76.0016 71.9729L72.4888 71.6724L72.0735 79.0668C71.7179 79.5831 71.4593 80.2688 71.367 81.0392Z" fill="#FFB6B6"/>
<path d="M72.2099 36.4829C72.2099 36.4829 76.0358 35.3898 76.8557 37.0295C77.6755 38.6691 79.5884 60.2582 79.5884 60.2582L75.8992 77.491L71.6633 76.3817L73.8496 58.8918L70.8435 45.7744L72.2099 36.4829Z" fill="#E6E6E6"/>
<path d="M15.9868 88.9087C24.8161 88.9087 31.9737 81.7512 31.9737 72.9219C31.9737 64.0926 24.8161 56.9351 15.9868 56.9351C7.15755 56.9351 0 64.0926 0 72.9219C0 81.7512 7.15755 88.9087 15.9868 88.9087Z" fill="#40C4FF"/>
<path d="M15.9868 65.7651C17.1162 65.7651 18.0317 66.6806 18.0317 67.8099V71.8996H13.942V67.8099C13.942 66.6806 14.8575 65.7651 15.9868 65.7651ZM19.0541 71.8996V67.8099C19.0541 66.1159 17.6808 64.7427 15.9868 64.7427C14.2928 64.7427 12.9196 66.1159 12.9196 67.8099V71.8996C11.7903 71.8996 10.8748 72.8151 10.8748 73.9444V79.0565C10.8748 80.1858 11.7903 81.1013 12.9196 81.1013H19.0541C20.1834 81.1013 21.0989 80.1858 21.0989 79.0565V73.9444C21.0989 72.8151 20.1834 71.8996 19.0541 71.8996ZM12.9196 72.922H19.0541C19.6187 72.922 20.0765 73.3797 20.0765 73.9444V79.0565C20.0765 79.6211 19.6187 80.0789 19.0541 80.0789H12.9196C12.3549 80.0789 11.8972 79.6211 11.8972 79.0565V73.9444C11.8972 73.3797 12.3549 72.922 12.9196 72.922Z" fill="white"/>
</g>
<defs>
<clipPath id="clip0_25_2777">
<rect width="154.399" height="140" fill="white"/>
</clipPath>
</defs>
</svg>
