<svg width="219" height="140" viewBox="0 0 219 140" fill="none" xmlns="http://www.w3.org/2000/svg">
<g clip-path="url(#clip0_25_2834)">
<path d="M204.009 123.699H148.858C146.852 123.697 144.928 122.899 143.509 121.48C142.091 120.061 141.293 118.138 141.29 116.131V29.1376C141.293 27.1312 142.091 25.2075 143.509 23.7887C144.928 22.3699 146.852 21.5718 148.858 21.5696H204.009C206.015 21.5718 207.939 22.3699 209.358 23.7887C210.777 25.2075 211.575 27.1312 211.577 29.1376V116.131C211.575 118.138 210.777 120.061 209.358 121.48C207.939 122.899 206.015 123.697 204.009 123.699Z" fill="#E6E6E6"/>
<path d="M204.923 26.0854H148.754C148.126 26.0862 147.524 26.3361 147.08 26.7802C146.636 27.2243 146.386 27.8265 146.385 28.4546V116.583C146.386 117.211 146.636 117.813 147.08 118.257C147.524 118.701 148.126 118.951 148.754 118.952H204.923C205.552 118.951 206.154 118.701 206.598 118.257C207.042 117.813 207.292 117.211 207.293 116.583V28.4546C207.292 27.8265 207.042 27.2243 206.598 26.7802C206.154 26.3361 205.552 26.0862 204.923 26.0854Z" fill="white"/>
<path d="M150.206 21.5694C150.206 21.4159 150.268 21.2688 150.376 21.1603C150.485 21.0517 150.632 20.9907 150.785 20.9905H154.722C154.876 20.9905 155.023 21.0515 155.132 21.1601C155.24 21.2686 155.301 21.4159 155.301 21.5694C155.301 21.723 155.24 21.8703 155.132 21.9788C155.023 22.0874 154.876 22.1484 154.722 22.1484H150.785C150.632 22.1482 150.485 22.0872 150.376 21.9786C150.268 21.8701 150.206 21.7229 150.206 21.5694Z" fill="#E6E6E6"/>
<path d="M156.691 21.5694C156.691 21.4159 156.752 21.2688 156.861 21.1603C156.969 21.0517 157.116 20.9907 157.27 20.9905H161.207C161.36 20.9905 161.508 21.0515 161.616 21.1601C161.725 21.2686 161.786 21.4159 161.786 21.5694C161.786 21.723 161.725 21.8703 161.616 21.9788C161.508 22.0874 161.36 22.1484 161.207 22.1484H157.27C157.116 22.1482 156.969 22.0872 156.861 21.9786C156.752 21.8701 156.691 21.7229 156.691 21.5694Z" fill="#E6E6E6"/>
<path d="M195.597 21.5694C195.598 21.4159 195.659 21.2688 195.767 21.1603C195.876 21.0517 196.023 20.9907 196.176 20.9905H200.113C200.267 20.9905 200.414 21.0515 200.523 21.1601C200.631 21.2686 200.692 21.4159 200.692 21.5694C200.692 21.723 200.631 21.8703 200.523 21.9788C200.414 22.0874 200.267 22.1484 200.113 22.1484H196.176C196.023 22.1482 195.876 22.0872 195.767 21.9786C195.659 21.8701 195.598 21.7229 195.597 21.5694Z" fill="#E6E6E6"/>
<path d="M184.623 117.136C184.623 117.745 184.611 118.352 184.583 118.952H148.754C148.126 118.951 147.524 118.701 147.08 118.257C146.636 117.813 146.386 117.211 146.385 116.583V72.2246C157.055 73.9484 166.762 79.4145 173.769 87.6439C180.775 95.8733 184.623 106.328 184.623 117.136Z" fill="#F2F2F2"/>
<path d="M183.406 48.7327H170.044C169.436 48.7327 168.943 49.2256 168.943 49.8336V51.2075C168.943 51.8156 169.436 52.3085 170.044 52.3085H183.406C184.014 52.3085 184.507 51.8156 184.507 51.2075V49.8336C184.507 49.2256 184.014 48.7327 183.406 48.7327Z" fill="#40C4FF"/>
<path d="M191.898 55.8843H161.551C160.943 55.8843 160.45 56.3772 160.45 56.9853V58.3591C160.45 58.9672 160.943 59.4601 161.551 59.4601H191.898C192.506 59.4601 192.999 58.9672 192.999 58.3591V56.9853C192.999 56.3772 192.506 55.8843 191.898 55.8843Z" fill="#E6E6E6"/>
<path d="M191.898 63.0361H161.551C160.943 63.0361 160.45 63.5291 160.45 64.1371V65.511C160.45 66.119 160.943 66.612 161.551 66.612H191.898C192.506 66.612 192.999 66.119 192.999 65.511V64.1371C192.999 63.5291 192.506 63.0361 191.898 63.0361Z" fill="#E6E6E6"/>
<path d="M186.702 112.929C186.528 112.937 186.355 112.891 186.208 112.798C186.061 112.705 185.946 112.569 185.879 112.408C185.812 112.247 185.796 112.07 185.833 111.9C185.87 111.729 185.958 111.575 186.086 111.456L186.144 111.225C186.137 111.207 186.129 111.188 186.121 111.17C185.946 110.755 185.652 110.402 185.277 110.155C184.902 109.907 184.462 109.776 184.012 109.778C183.562 109.779 183.123 109.914 182.75 110.164C182.376 110.415 182.085 110.77 181.913 111.185C181.225 112.843 180.349 114.503 180.133 116.256C180.038 117.031 180.078 117.816 180.251 118.577C178.635 115.051 177.795 111.218 177.79 107.339C177.79 106.366 177.844 105.393 177.952 104.426C178.041 103.633 178.165 102.845 178.324 102.063C179.191 97.8217 181.051 93.846 183.752 90.4628C185.06 89.7494 186.117 88.6524 186.782 87.3196C187.023 86.8405 187.193 86.3291 187.287 85.8012C187.14 85.8206 186.99 85.8327 186.842 85.8423C186.796 85.8448 186.748 85.8472 186.702 85.8496L186.685 85.8504C186.523 85.8577 186.362 85.8179 186.222 85.736C186.082 85.654 185.968 85.5333 185.895 85.3884C185.822 85.2435 185.793 85.0806 185.81 84.9193C185.827 84.758 185.891 84.6051 185.993 84.4792C186.057 84.4008 186.121 84.3225 186.185 84.2442C186.281 84.1233 186.38 84.0048 186.477 83.8839C186.488 83.8724 186.499 83.8603 186.509 83.8476C186.62 83.7098 186.731 83.5744 186.842 83.4366C186.639 83.1215 186.366 82.8576 186.044 82.6654C184.93 82.0125 183.392 82.4647 182.587 83.4729C181.779 84.4811 181.627 85.8955 181.907 87.1552C182.183 88.2271 182.639 89.2442 183.257 90.1629C183.196 90.2403 183.133 90.3153 183.073 90.3926C181.968 91.8135 181.005 93.3391 180.198 94.9478C180.394 93.1456 180.16 91.3226 179.514 89.6286C178.859 88.0499 177.633 86.7203 176.553 85.3555C175.255 83.7162 172.595 84.4317 172.366 86.5098C172.364 86.5299 172.362 86.55 172.36 86.5701C172.52 86.6606 172.677 86.7567 172.831 86.8583C173.024 86.9873 173.173 87.1716 173.26 87.387C173.346 87.6025 173.366 87.839 173.316 88.0657C173.265 88.2923 173.148 88.4985 172.978 88.6573C172.809 88.816 172.596 88.9199 172.366 88.9553L172.343 88.9589C172.4 89.5371 172.501 90.1102 172.645 90.6731C173.062 92.2446 173.8 93.713 174.811 94.9861C175.823 96.2592 177.086 97.3097 178.523 98.0716C178.617 98.1199 178.709 98.1683 178.803 98.2142C177.992 100.513 177.483 102.907 177.289 105.337C177.18 106.771 177.186 108.211 177.309 109.643L177.302 109.592C176.992 108 176.142 106.562 174.896 105.523C173.044 104.002 170.429 103.442 168.432 102.22C168.219 102.084 167.973 102.011 167.72 102.01C167.468 102.01 167.221 102.081 167.008 102.217C166.795 102.352 166.625 102.545 166.519 102.774C166.412 103.002 166.373 103.257 166.406 103.507C166.409 103.524 166.411 103.542 166.414 103.56C166.712 103.681 167.002 103.821 167.282 103.978C167.443 104.069 167.6 104.165 167.753 104.267C167.946 104.395 168.096 104.58 168.182 104.795C168.269 105.011 168.288 105.247 168.238 105.474C168.188 105.701 168.07 105.907 167.901 106.065C167.732 106.224 167.518 106.328 167.289 106.363L167.265 106.367C167.248 106.369 167.234 106.372 167.217 106.374C167.726 107.589 168.44 108.707 169.328 109.679C170.425 110.857 171.75 111.797 173.224 112.444C174.697 113.09 176.287 113.429 177.896 113.439H177.899C178.335 115.337 178.968 117.185 179.787 118.952H186.533C186.557 118.877 186.579 118.799 186.6 118.724C185.976 118.764 185.349 118.726 184.734 118.613C185.234 117.999 185.735 117.38 186.235 116.766C186.246 116.755 186.257 116.742 186.267 116.73C186.521 116.415 186.777 116.104 187.031 115.789L187.031 115.789C187.044 114.825 186.934 113.864 186.702 112.929ZM178.977 97.7331L178.981 97.7283L178.977 97.7379V97.7331ZM177.483 111.203L177.425 111.072C177.427 110.978 177.427 110.884 177.425 110.787C177.425 110.76 177.42 110.734 177.42 110.707C177.442 110.874 177.461 111.041 177.485 111.208L177.483 111.203Z" fill="#CCCCCC"/>
<path d="M202.116 33.8661H151.562C151.452 33.8637 151.348 33.8185 151.272 33.7403C151.195 33.6621 151.153 33.5571 151.153 33.4477C151.153 33.3383 151.195 33.2332 151.272 33.155C151.348 33.0768 151.452 33.0317 151.562 33.0293H202.116C202.225 33.0317 202.329 33.0768 202.406 33.155C202.482 33.2332 202.525 33.3383 202.525 33.4477C202.525 33.5571 202.482 33.6621 202.406 33.7403C202.329 33.8185 202.225 33.8637 202.116 33.8661Z" fill="#CACACA"/>
<path d="M154.259 31.8194C154.938 31.8194 155.489 31.2565 155.489 30.5623C155.489 29.868 154.938 29.3052 154.259 29.3052C153.58 29.3052 153.03 29.868 153.03 30.5623C153.03 31.2565 153.58 31.8194 154.259 31.8194Z" fill="#3F3D56"/>
<path d="M158.507 31.8194C159.186 31.8194 159.737 31.2565 159.737 30.5623C159.737 29.868 159.186 29.3052 158.507 29.3052C157.828 29.3052 157.278 29.868 157.278 30.5623C157.278 31.2565 157.828 31.8194 158.507 31.8194Z" fill="#3F3D56"/>
<path d="M162.755 31.8194C163.434 31.8194 163.985 31.2565 163.985 30.5623C163.985 29.868 163.434 29.3052 162.755 29.3052C162.076 29.3052 161.525 29.868 161.525 30.5623C161.525 31.2565 162.076 31.8194 162.755 31.8194Z" fill="#3F3D56"/>
<path d="M200.14 29.7908H197.388C197.333 29.7918 197.281 29.8143 197.243 29.8532C197.205 29.8922 197.184 29.9446 197.184 29.9991C197.184 30.0537 197.205 30.1061 197.243 30.145C197.281 30.184 197.333 30.2064 197.388 30.2075H200.14C200.194 30.2064 200.246 30.184 200.284 30.145C200.323 30.1061 200.344 30.0537 200.344 29.9991C200.344 29.9446 200.323 29.8922 200.284 29.8532C200.246 29.8143 200.194 29.7918 200.14 29.7908Z" fill="#3F3D56"/>
<path d="M200.14 30.573H197.388C197.333 30.5741 197.281 30.5965 197.243 30.6355C197.205 30.6744 197.184 30.7268 197.184 30.7814C197.184 30.8359 197.205 30.8883 197.243 30.9273C197.281 30.9662 197.333 30.9887 197.388 30.9897H200.14C200.194 30.9887 200.246 30.9662 200.284 30.9273C200.323 30.8883 200.344 30.8359 200.344 30.7814C200.344 30.7268 200.323 30.6744 200.284 30.6355C200.246 30.5965 200.194 30.5741 200.14 30.573Z" fill="#3F3D56"/>
<path d="M200.14 31.3542H197.388C197.333 31.3553 197.281 31.3777 197.243 31.4167C197.205 31.4557 197.184 31.5081 197.184 31.5626C197.184 31.6172 197.205 31.6696 197.243 31.7085C197.281 31.7475 197.333 31.7699 197.388 31.771H200.14C200.194 31.7699 200.246 31.7475 200.284 31.7085C200.323 31.6696 200.344 31.6172 200.344 31.5626C200.344 31.5081 200.323 31.4557 200.284 31.4167C200.246 31.3777 200.194 31.3553 200.14 31.3542Z" fill="#3F3D56"/>
<path d="M118.117 72.2576H88.8068C88.3922 72.2582 87.9948 72.4235 87.702 72.717C87.4092 73.0106 87.2449 73.4084 87.2454 73.8231V120.124H119.682V73.8231C119.682 73.6175 119.642 73.4138 119.563 73.2238C119.485 73.0339 119.369 72.8612 119.224 72.7159C119.078 72.5705 118.906 72.4551 118.716 72.3765C118.526 72.2979 118.322 72.2575 118.117 72.2576ZM103.56 98.5651C102.644 98.5608 101.766 98.1948 101.118 97.5467C100.47 96.8986 100.104 96.0207 100.099 95.1041V89.7637C100.1 88.8463 100.465 87.9668 101.114 87.3184C101.763 86.6699 102.643 86.3057 103.56 86.3057C104.478 86.3057 105.358 86.6699 106.007 87.3184C106.656 87.9668 107.021 88.8463 107.021 89.7637V95.1041C107.017 96.0207 106.651 96.8986 106.003 97.5467C105.355 98.1948 104.477 98.5609 103.56 98.5651Z" fill="#E6E6E6"/>
<path d="M87.1448 118.643V123.11C87.1453 123.341 87.2374 123.563 87.4011 123.727C87.5648 123.891 87.7866 123.983 88.0181 123.983H118.909C119.141 123.982 119.362 123.89 119.526 123.726C119.689 123.563 119.782 123.341 119.783 123.11V118.643L87.1448 118.643Z" fill="#CCCCCC"/>
<path d="M166.651 0H41.3631C40.2867 0.00171246 39.2549 0.430076 38.4937 1.19122C37.7326 1.95236 37.3042 2.9842 37.3025 4.06061V88.6053C37.3035 89.682 37.7317 90.7142 38.493 91.4755C39.2543 92.2368 40.2865 92.6649 41.3631 92.666H166.651C167.728 92.6649 168.76 92.2368 169.521 91.4755C170.282 90.7142 170.711 89.682 170.712 88.6053V4.06061C170.71 2.9842 170.281 1.95236 169.52 1.19122C168.759 0.430076 167.727 0.00171179 166.651 0Z" fill="#E6E6E6"/>
<path d="M165.605 2.93286H42.4099C41.8335 2.93411 41.2812 3.16393 40.8741 3.57189C40.467 3.97986 40.2383 4.53265 40.2383 5.109V87.5582C40.2393 88.1338 40.4684 88.6856 40.8754 89.0927C41.2825 89.4997 41.8343 89.7288 42.4099 89.7298H165.605C166.181 89.7288 166.733 89.4997 167.14 89.0927C167.547 88.6856 167.776 88.1338 167.777 87.5582V5.109C167.777 4.53265 167.548 3.97986 167.141 3.57189C166.734 3.16393 166.181 2.93411 165.605 2.93286Z" fill="white"/>
<path d="M167.777 5.109V87.5582C167.776 88.1338 167.547 88.6856 167.139 89.0927C166.732 89.4997 166.181 89.7288 165.605 89.7298H122.164C117.358 85.273 113.415 79.9682 110.534 74.0815C110.344 73.7023 110.163 73.3185 109.992 72.9303C107.366 67.2326 105.776 61.1128 105.296 54.8575C105.265 54.4738 105.238 54.09 105.22 53.7017C105.161 52.7085 105.134 51.7017 105.134 50.6904C105.125 43.9644 106.395 37.2981 108.877 31.0465C109.026 30.6582 109.184 30.2744 109.346 29.8907C114.34 18.158 123.363 8.59684 134.787 2.93286H165.605C166.181 2.93411 166.734 3.16393 167.141 3.57189C167.548 3.97986 167.777 4.53265 167.777 5.109Z" fill="#40C4FF"/>
<path d="M159.412 14.2925H44.1389C44.019 14.29 43.9049 14.2406 43.821 14.1549C43.7372 14.0692 43.6902 13.9541 43.6902 13.8341C43.6902 13.7142 43.7372 13.5991 43.821 13.5134C43.9049 13.4277 44.019 13.3783 44.1389 13.3757H159.412C159.532 13.3783 159.646 13.4277 159.73 13.5134C159.814 13.5991 159.861 13.7142 159.861 13.8341C159.861 13.9541 159.814 14.0692 159.73 14.1549C159.646 14.2406 159.532 14.29 159.412 14.2925Z" fill="#CACACA"/>
<path d="M51.9858 11.0352C53.4695 11.0352 54.6723 9.80562 54.6723 8.28885C54.6723 6.77207 53.4695 5.54248 51.9858 5.54248C50.5021 5.54248 49.2993 6.77207 49.2993 8.28885C49.2993 9.80562 50.5021 11.0352 51.9858 11.0352Z" fill="#3F3D56"/>
<path d="M61.2663 11.0352C62.75 11.0352 63.9528 9.80562 63.9528 8.28885C63.9528 6.77207 62.75 5.54248 61.2663 5.54248C59.7826 5.54248 58.5798 6.77207 58.5798 8.28885C58.5798 9.80562 59.7826 11.0352 61.2663 11.0352Z" fill="#3F3D56"/>
<path d="M70.5471 11.0352C72.0308 11.0352 73.2336 9.80562 73.2336 8.28885C73.2336 6.77207 72.0308 5.54248 70.5471 5.54248C69.0634 5.54248 67.8606 6.77207 67.8606 8.28885C67.8606 9.80562 69.0634 11.0352 70.5471 11.0352Z" fill="#3F3D56"/>
<path d="M153.825 6.22314H147.232C147.101 6.22573 146.977 6.27946 146.885 6.37279C146.794 6.46612 146.743 6.59161 146.743 6.72231C146.743 6.85302 146.794 6.97851 146.885 7.07184C146.977 7.16517 147.101 7.21889 147.232 7.22148H153.825C153.955 7.21889 154.08 7.16517 154.171 7.07184C154.263 6.97851 154.314 6.85302 154.314 6.72231C154.314 6.59161 154.263 6.46612 154.171 6.37279C154.08 6.27946 153.955 6.22573 153.825 6.22314Z" fill="#3F3D56"/>
<path d="M153.825 8.09692H147.232C147.101 8.09951 146.977 8.15324 146.885 8.24657C146.794 8.3399 146.743 8.46539 146.743 8.59609C146.743 8.72679 146.794 8.85229 146.885 8.94562C146.977 9.03895 147.101 9.09267 147.232 9.09526H153.825C153.955 9.09267 154.08 9.03895 154.171 8.94562C154.263 8.85229 154.314 8.72679 154.314 8.59609C154.314 8.46539 154.263 8.3399 154.171 8.24657C154.08 8.15324 153.955 8.09951 153.825 8.09692Z" fill="#3F3D56"/>
<path d="M153.825 9.96826H147.232C147.101 9.97085 146.977 10.0246 146.885 10.1179C146.794 10.2112 146.743 10.3367 146.743 10.4674C146.743 10.5981 146.794 10.7236 146.885 10.817C146.977 10.9103 147.101 10.964 147.232 10.9666H153.825C153.955 10.964 154.08 10.9103 154.171 10.817C154.263 10.7236 154.314 10.5981 154.314 10.4674C154.314 10.3367 154.263 10.2112 154.171 10.1179C154.08 10.0246 153.955 9.97085 153.825 9.96826Z" fill="#3F3D56"/>
<path d="M79.4343 41.0735H63.3144C62.7063 41.0735 62.2134 41.5664 62.2134 42.1745V43.8904C62.2134 44.4985 62.7063 44.9914 63.3144 44.9914H79.4343C80.0424 44.9914 80.5353 44.4985 80.5353 43.8904V42.1745C80.5353 41.5664 80.0424 41.0735 79.4343 41.0735Z" fill="#40C4FF"/>
<path d="M88.7393 48.9092H54.0092C53.4011 48.9092 52.9082 49.4021 52.9082 50.0102V51.7261C52.9082 52.3342 53.4011 52.8271 54.0092 52.8271H88.7393C89.3473 52.8271 89.8403 52.3342 89.8403 51.7261V50.0102C89.8403 49.4021 89.3473 48.9092 88.7393 48.9092Z" fill="#E6E6E6"/>
<path d="M88.7393 56.7451H54.0092C53.4011 56.7451 52.9082 57.238 52.9082 57.8461V59.5621C52.9082 60.1701 53.4011 60.663 54.0092 60.663H88.7393C89.3473 60.663 89.8403 60.1701 89.8403 59.5621V57.8461C89.8403 57.238 89.3473 56.7451 88.7393 56.7451Z" fill="#E6E6E6"/>
<path d="M55.9227 85.0029C55.9254 86.6167 55.6379 88.2178 55.0739 89.7299H42.4099C41.8343 89.7289 41.2825 89.4997 40.8754 89.0927C40.4684 88.6857 40.2393 88.1339 40.2383 87.5583V71.6301C40.9459 71.5156 41.6615 71.4583 42.3783 71.4585C44.157 71.4584 45.9183 71.8086 47.5616 72.4893C49.205 73.1699 50.6981 74.1676 51.9559 75.4253C53.2136 76.683 54.2113 78.1762 54.8919 79.8195C55.5725 81.4629 55.9228 83.2242 55.9227 85.0029Z" fill="#40C4FF"/>
<path opacity="0.2" d="M167.89 31.0465V29.8907H148.517V16.4954H147.365V29.8907H125.162V16.4954H124.01V29.8907H109.346C109.184 30.2745 109.026 30.6583 108.877 31.0466H124.01V53.7018H105.22C105.238 54.0901 105.265 54.4738 105.296 54.8576H124.01V72.9303H109.992C110.163 73.3186 110.344 73.7024 110.534 74.0816H124.01V89.2738H125.162V74.0816H147.365V89.2738H148.517V74.0816H167.89V72.9303H148.517C148.517 70.557 148.984 68.2068 149.892 66.0142C150.801 63.8215 152.132 61.8291 153.81 60.1509C155.488 58.4727 157.481 57.1415 159.673 56.2333C161.866 55.325 164.216 54.8576 166.589 54.8576H167.89V53.7018H148.517V31.0465H167.89ZM147.365 72.9303H125.162V54.8576H147.365V72.9303ZM147.365 53.7018H125.162V53.2503C125.162 47.3615 127.501 41.7139 131.665 37.5499C135.829 33.3859 141.477 31.0465 147.365 31.0465L147.365 53.7018Z" fill="black"/>
<path d="M152.291 81.176C152.044 81.1874 151.8 81.1225 151.591 80.9902C151.382 80.8579 151.218 80.6645 151.123 80.4362C151.027 80.208 151.005 79.956 151.057 79.7143C151.11 79.4725 151.235 79.2528 151.417 79.0849C151.447 78.964 151.469 78.8772 151.5 78.7562C151.489 78.7299 151.478 78.7036 151.467 78.6774C150.356 76.0288 146.592 76.0471 145.49 78.6996C144.513 81.0538 143.269 83.412 142.962 85.9012C142.827 87.0014 142.884 88.1168 143.13 89.1976C140.835 84.1896 139.642 78.7464 139.635 73.2373C139.634 71.8548 139.711 70.4734 139.865 69.0995C139.992 67.9732 140.168 66.8549 140.394 65.7447C141.624 59.7205 144.266 54.0741 148.102 49.2693C149.959 48.2561 151.461 46.6982 152.405 44.8053C152.747 44.1249 152.989 43.3986 153.123 42.6489C152.913 42.6764 152.7 42.6935 152.491 42.7072C152.426 42.7107 152.357 42.7141 152.292 42.7176L152.267 42.7187C152.037 42.729 151.809 42.6726 151.61 42.5562C151.411 42.4398 151.25 42.2684 151.146 42.0626C151.042 41.8568 151 41.6255 151.025 41.3964C151.05 41.1672 151.14 40.9502 151.285 40.7712C151.376 40.6599 151.466 40.5487 151.557 40.4375C151.694 40.2658 151.835 40.0975 151.972 39.9259C151.988 39.9096 152.003 39.8924 152.017 39.8743C152.175 39.6786 152.333 39.4863 152.491 39.2906C152.203 38.8431 151.815 38.4682 151.358 38.1952C149.775 37.2681 147.591 37.9102 146.447 39.3421C145.3 40.774 145.084 42.7828 145.482 44.5718C145.822 46.1033 146.564 47.5077 147.399 48.8434C147.313 48.9533 147.223 49.0598 147.138 49.1697C145.568 51.1876 144.201 53.3544 143.054 55.639C143.333 53.0795 143 50.4904 142.083 48.0846C141.154 45.8425 139.412 43.9542 137.877 42.0159C136.035 39.6877 132.256 40.7038 131.932 43.6551C131.928 43.6837 131.925 43.7123 131.922 43.7408C132.15 43.8694 132.373 44.0058 132.591 44.1501C132.866 44.3333 133.078 44.595 133.201 44.901C133.324 45.207 133.351 45.5429 133.28 45.8649C133.209 46.1868 133.042 46.4796 132.801 46.7051C132.561 46.9305 132.258 47.078 131.932 47.1283L131.898 47.1334C131.979 47.9547 132.123 48.7685 132.328 49.568C132.92 51.7999 133.968 53.8853 135.404 55.6934C136.841 57.5015 138.635 58.9934 140.675 60.0755C140.809 60.1441 140.94 60.2128 141.073 60.2781C139.921 63.5426 139.199 66.9431 138.924 70.3941C138.768 72.43 138.777 74.4752 138.951 76.5097L138.941 76.4376C138.501 74.1753 137.295 72.134 135.524 70.6585C132.895 68.4986 129.18 67.7032 126.344 65.9671C124.978 65.1314 123.229 66.2114 123.467 67.7944C123.471 67.8197 123.475 67.845 123.479 67.8702C123.901 68.0424 124.313 68.2408 124.711 68.4642C124.939 68.5928 125.162 68.7293 125.38 68.8736C125.655 69.0567 125.867 69.3185 125.99 69.6244C126.113 69.9304 126.14 70.2664 126.069 70.5883C125.998 70.9102 125.831 71.2031 125.59 71.4285C125.35 71.654 125.047 71.8015 124.721 71.8517L124.687 71.8568C124.663 71.8603 124.643 71.8637 124.619 71.8672C125.341 73.5923 126.355 75.1801 127.616 76.5612C129.174 78.2329 131.057 79.5688 133.15 80.487C135.243 81.4052 137.501 81.8863 139.786 81.9007H139.789C140.41 84.5963 141.308 87.2201 142.471 89.7298H152.051C152.086 89.6234 152.117 89.5135 152.147 89.407C151.261 89.4628 150.37 89.4098 149.497 89.2491C150.207 88.3769 150.918 87.4978 151.629 86.6257C151.645 86.6094 151.66 86.5922 151.674 86.5741C152.034 86.1278 152.398 85.6848 152.759 85.2384L152.759 85.2379C152.778 83.8695 152.621 82.5044 152.292 81.1762L152.291 81.176ZM141.321 59.5947L141.326 59.5879L141.321 59.6016V59.5947ZM139.199 78.7245L139.116 78.5391C139.12 78.4051 139.12 78.2712 139.116 78.1339C139.116 78.0961 139.109 78.0583 139.109 78.0205C139.14 78.2575 139.168 78.4944 139.202 78.7314L139.199 78.7245Z" fill="#2F2E41"/>
<path d="M66.982 58.7697V45.894C66.982 43.9176 66.1969 42.0221 64.7994 40.6246C63.4018 39.227 61.5064 38.4419 59.5299 38.4419H32.2509C30.2745 38.4419 28.379 39.227 26.9815 40.6246C25.584 42.0221 24.7988 43.9176 24.7988 45.894V116.531C24.7988 118.508 25.584 120.403 26.9815 121.801C28.379 123.198 30.2745 123.983 32.2509 123.983H59.5299C60.5086 123.983 61.4776 123.791 62.3817 123.416C63.2859 123.042 64.1074 122.493 64.7994 121.801C65.4914 121.109 66.0403 120.287 66.4148 119.383C66.7893 118.479 66.982 117.51 66.982 116.531V67.9349C67.1067 67.9349 67.2262 67.8854 67.3144 67.7972C67.4025 67.7091 67.452 67.5896 67.452 67.4649V59.2398C67.452 59.1151 67.4025 58.9956 67.3144 58.9074C67.2262 58.8193 67.1067 58.7697 66.982 58.7697Z" fill="#E6E6E6"/>
<path d="M65.3961 45.9452V116.48C65.3963 117.946 64.8184 119.352 63.7878 120.393C62.7573 121.434 61.3575 122.027 59.8925 122.042C59.8722 122.045 59.8519 122.045 59.8316 122.045H32.4198C30.944 122.045 29.5287 121.459 28.4852 120.415C27.4417 119.371 26.8554 117.956 26.8552 116.48V45.9452C26.8554 44.4694 27.4417 43.0541 28.4852 42.0106C29.5287 40.9671 30.944 40.3807 32.4198 40.3806H35.7463C35.5828 40.7822 35.5205 41.2178 35.5649 41.6492C35.6092 42.0805 35.7589 42.4943 36.0008 42.8542C36.2426 43.2141 36.5692 43.5091 36.9518 43.7131C37.3345 43.9172 37.7613 44.024 38.195 44.0244H53.8229C54.2562 44.0232 54.6825 43.9157 55.0645 43.7113C55.4465 43.507 55.7726 43.212 56.014 42.8523C56.2555 42.4926 56.405 42.0792 56.4495 41.6482C56.4939 41.2173 56.432 40.782 56.269 40.3806H59.8316C61.3073 40.3807 62.7226 40.9671 63.7662 42.0106C64.8097 43.0541 65.396 44.4694 65.3961 45.9452Z" fill="white"/>
<path d="M59.961 119.868C59.961 120.599 59.9381 121.324 59.8925 122.042C59.8722 122.045 59.8519 122.045 59.8316 122.045H32.4198C30.944 122.045 29.5287 121.459 28.4852 120.415C27.4417 119.372 26.8554 117.956 26.8552 116.48V85.0469C35.7864 85.4972 44.2031 89.3624 50.3648 95.8434C56.5265 102.324 59.962 110.925 59.961 119.868Z" fill="#F2F2F2"/>
<path d="M24.9495 65.973C24.7814 65.9728 24.6201 65.9059 24.5012 65.7869C24.3823 65.668 24.3154 65.5068 24.3152 65.3386V61.025C24.3152 60.8567 24.382 60.6954 24.501 60.5764C24.62 60.4575 24.7813 60.3906 24.9495 60.3906C25.1178 60.3906 25.2791 60.4575 25.3981 60.5764C25.5171 60.6954 25.5839 60.8567 25.5839 61.025V65.3386C25.5837 65.5068 25.5168 65.668 25.3979 65.7869C25.279 65.9059 25.1177 65.9728 24.9495 65.973Z" fill="#E6E6E6"/>
<path d="M49.4914 62.5286H42.7599C42.1519 62.5286 41.6589 63.0215 41.6589 63.6295V65.3455C41.6589 65.9536 42.1519 66.4465 42.7599 66.4465H49.4914C50.0995 66.4465 50.5924 65.9536 50.5924 65.3455V63.6295C50.5924 63.0215 50.0995 62.5286 49.4914 62.5286Z" fill="#40C4FF"/>
<path d="M58.7964 70.3645H33.4547C32.8467 70.3645 32.3538 70.8574 32.3538 71.4655V73.1814C32.3538 73.7895 32.8467 74.2824 33.4547 74.2824H58.7964C59.4044 74.2824 59.8974 73.7895 59.8974 73.1814V71.4655C59.8974 70.8574 59.4044 70.3645 58.7964 70.3645Z" fill="#E6E6E6"/>
<path d="M58.7964 78.2002H33.4547C32.8467 78.2002 32.3538 78.6931 32.3538 79.3012V81.0171C32.3538 81.6252 32.8467 82.1181 33.4547 82.1181H58.7964C59.4044 82.1181 59.8974 81.6252 59.8974 81.0171V79.3012C59.8974 78.6931 59.4044 78.2002 58.7964 78.2002Z" fill="#E6E6E6"/>
<path d="M52.6987 118.031C52.5828 118.036 52.468 118.006 52.3699 117.944C52.2718 117.882 52.1952 117.791 52.1504 117.684C52.1056 117.577 52.0949 117.458 52.1195 117.345C52.1442 117.231 52.2032 117.128 52.2884 117.05L52.3272 116.895C52.3221 116.883 52.317 116.871 52.3118 116.858C52.195 116.582 51.9992 116.347 51.7491 116.182C51.499 116.017 51.2057 115.93 50.9061 115.931C50.6064 115.932 50.3138 116.021 50.0649 116.188C49.816 116.355 49.622 116.592 49.5073 116.869C49.0486 117.973 48.4646 119.08 48.3208 120.248C48.2575 120.765 48.2842 121.288 48.3997 121.795C47.3224 119.445 46.763 116.891 46.7594 114.305C46.7591 113.657 46.7952 113.008 46.8673 112.364C46.927 111.835 47.0097 111.31 47.1155 110.789C47.6929 107.962 48.9327 105.313 50.733 103.058C51.6044 102.583 52.309 101.852 52.7521 100.963C52.9126 100.644 53.026 100.303 53.0888 99.9513C52.9905 99.9642 52.8906 99.9723 52.7923 99.9787C52.7617 99.9803 52.7295 99.982 52.6989 99.9836L52.6873 99.9841C52.5793 99.9889 52.4722 99.9624 52.3789 99.9078C52.2855 99.8532 52.21 99.7728 52.1613 99.6762C52.1126 99.5797 52.0929 99.4711 52.1045 99.3636C52.1161 99.256 52.1585 99.1542 52.2266 99.0702C52.2691 99.018 52.3116 98.9658 52.354 98.9136C52.4185 98.833 52.4846 98.7541 52.549 98.6735C52.5565 98.6659 52.5635 98.6578 52.57 98.6493C52.6441 98.5575 52.7182 98.4672 52.7923 98.3754C52.657 98.1654 52.4751 97.9895 52.2606 97.8614C51.5178 97.4263 50.4929 97.7276 49.9563 98.3996C49.4181 99.0715 49.3166 100.014 49.5035 100.854C49.6873 101.568 49.9914 102.246 50.4027 102.858C50.3624 102.91 50.3205 102.96 50.2802 103.011C49.5438 103.958 48.902 104.975 48.3639 106.047C48.4948 104.846 48.3386 103.631 47.9083 102.502C47.4721 101.45 46.6546 100.564 45.9348 99.6543C45.7443 99.41 45.4858 99.2276 45.1917 99.1301C44.8977 99.0327 44.5814 99.0247 44.2827 99.107C43.9841 99.1893 43.7166 99.3583 43.514 99.5927C43.3114 99.827 43.1828 100.116 43.1445 100.424C43.1431 100.437 43.1416 100.45 43.1402 100.464C43.2472 100.524 43.3518 100.588 43.4542 100.656C43.5829 100.742 43.6826 100.865 43.7402 101.008C43.7979 101.152 43.8108 101.309 43.7774 101.46C43.7439 101.612 43.6656 101.749 43.5527 101.855C43.4398 101.961 43.2975 102.03 43.1446 102.053L43.129 102.056C43.167 102.441 43.2344 102.823 43.3304 103.198C43.6085 104.246 44.1 105.224 44.7741 106.073C45.4482 106.921 46.2903 107.621 47.2476 108.129C47.3105 108.161 47.3717 108.194 47.4345 108.224C46.894 109.756 46.5549 111.352 46.4258 112.971C46.3528 113.927 46.3571 114.886 46.4387 115.841L46.4339 115.807C46.2276 114.746 45.6613 113.788 44.8306 113.095C43.5967 112.082 41.8535 111.709 40.5224 110.894C40.381 110.803 40.2165 110.755 40.0484 110.754C39.8803 110.754 39.7155 110.801 39.5736 110.891C39.4317 110.982 39.3186 111.11 39.2475 111.263C39.1764 111.415 39.1504 111.585 39.1724 111.751L39.1779 111.787C39.3763 111.868 39.5695 111.961 39.7563 112.066C39.8633 112.126 39.9679 112.19 40.0704 112.258C40.199 112.344 40.2987 112.466 40.3564 112.61C40.414 112.754 40.427 112.911 40.3935 113.062C40.36 113.213 40.2817 113.351 40.1688 113.457C40.0559 113.562 39.9137 113.632 39.7607 113.655L39.7451 113.658C39.7338 113.659 39.7241 113.661 39.7128 113.663C40.0519 114.472 40.5277 115.217 41.1196 115.865C41.8507 116.65 42.7343 117.277 43.7163 117.708C44.6983 118.138 45.7579 118.364 46.8303 118.371H46.8319C47.123 119.636 47.5447 120.867 48.0904 122.045H52.5861C52.6022 121.995 52.6167 121.943 52.6312 121.893C52.2151 121.92 51.7973 121.895 51.3872 121.819C51.7208 121.41 52.0543 120.997 52.3879 120.588C52.3953 120.581 52.4023 120.572 52.4088 120.564C52.578 120.355 52.7488 120.147 52.918 119.937L52.9181 119.937C52.9271 119.295 52.8533 118.654 52.6987 118.031ZM47.5505 107.903L47.5529 107.9L47.5505 107.907V107.903ZM46.5547 116.88L46.516 116.793C46.5177 116.731 46.5177 116.668 46.516 116.603C46.516 116.586 46.5128 116.568 46.5128 116.55C46.5273 116.661 46.5402 116.772 46.5563 116.884L46.5547 116.88Z" fill="#CCCCCC"/>
<path d="M24.8226 57.5994C24.6544 57.5992 24.4932 57.5323 24.3742 57.4134C24.2553 57.2945 24.1884 57.1332 24.1882 56.9651V52.6514C24.1882 52.4832 24.2551 52.3219 24.374 52.2029C24.493 52.0839 24.6543 52.0171 24.8226 52.0171C24.9908 52.0171 25.1522 52.0839 25.2711 52.2029C25.3901 52.3219 25.4569 52.4832 25.4569 52.6514V56.9651C25.4567 57.1332 25.3898 57.2945 25.2709 57.4134C25.152 57.5323 24.9908 57.5992 24.8226 57.5994Z" fill="#E6E6E6"/>
<path d="M41.6965 41.106C41.6967 40.9379 41.7636 40.7766 41.8825 40.6577C42.0015 40.5388 42.1627 40.4719 42.3309 40.4717H46.6445C46.8127 40.4717 46.9741 40.5385 47.0931 40.6575C47.212 40.7764 47.2789 40.9378 47.2789 41.106C47.2789 41.2743 47.212 41.4356 47.0931 41.5546C46.9741 41.6736 46.8127 41.7404 46.6445 41.7404H42.3309C42.1627 41.7402 42.0015 41.6733 41.8825 41.5544C41.7636 41.4355 41.6967 41.2742 41.6965 41.106Z" fill="white"/>
<path d="M24.9495 73.3314C24.7814 73.3312 24.6201 73.2643 24.5012 73.1453C24.3823 73.0264 24.3154 72.8652 24.3152 72.697V68.3834C24.3152 68.2151 24.382 68.0538 24.501 67.9348C24.62 67.8159 24.7813 67.749 24.9495 67.749C25.1178 67.749 25.2791 67.8159 25.3981 67.9348C25.5171 68.0538 25.5839 68.2151 25.5839 68.3834V72.697C25.5837 72.8652 25.5168 73.0264 25.3979 73.1453C25.279 73.2643 25.1177 73.3312 24.9495 73.3314Z" fill="#E6E6E6"/>
<path d="M49.055 41.7404C49.4054 41.7404 49.6894 41.4564 49.6894 41.106C49.6894 40.7557 49.4054 40.4717 49.055 40.4717C48.7047 40.4717 48.4207 40.7557 48.4207 41.106C48.4207 41.4564 48.7047 41.7404 49.055 41.7404Z" fill="white"/>
<path d="M217.95 123.982L0.30223 124.06C0.222252 124.059 0.145631 124.028 0.0891606 123.971C0.0326899 123.914 0.000976562 123.838 0.000976562 123.758C0.000976562 123.678 0.0326899 123.601 0.0891606 123.544C0.145631 123.488 0.222252 123.456 0.30223 123.455L217.95 123.377C218.03 123.377 218.107 123.409 218.163 123.466C218.22 123.523 218.252 123.599 218.252 123.68C218.252 123.76 218.22 123.837 218.163 123.893C218.107 123.95 218.03 123.982 217.95 123.982Z" fill="#CACACA"/>
<path d="M93.0659 57.3728L91.921 57.6181C91.9135 57.1392 91.8539 56.6626 91.7431 56.1967C91.6389 56.7673 91.4196 57.3107 91.0985 57.7937L84.5326 59.1958L78.2288 52.5433C78.2192 49.2171 80.0663 46.6893 83.3781 46.6893C83.5777 46.6893 83.7846 46.6989 83.9938 46.7182C85.7831 46.4187 87.6189 46.8252 89.1145 47.852C90.6102 48.8789 91.649 50.446 92.0124 52.2235C94.3598 54.5348 93.5084 55.8936 93.0659 57.3728Z" fill="#2F2E41"/>
<path d="M96.294 135.171H98.6756L99.8088 125.985L96.2935 125.985L96.294 135.171Z" fill="#FFB6B6"/>
<path d="M95.7032 133.996L99.4682 133.771V135.385L103.048 137.857C103.224 137.979 103.358 138.154 103.428 138.357C103.498 138.56 103.501 138.781 103.437 138.986C103.373 139.191 103.245 139.37 103.072 139.497C102.899 139.625 102.69 139.693 102.475 139.693H97.9928L97.2202 138.098L96.9185 139.693H95.2285L95.7032 133.996Z" fill="#2F2E41"/>
<path d="M68.3914 132.579L70.4629 133.754L75.9818 126.323L72.9245 124.589L68.3914 132.579Z" fill="#FFB6B6"/>
<path d="M68.4573 131.265L71.8428 132.928L71.0467 134.331L72.94 138.247C73.0335 138.441 73.0628 138.659 73.0235 138.87C72.9842 139.082 72.8784 139.275 72.7215 139.422C72.5647 139.568 72.365 139.661 72.1517 139.687C71.9383 139.712 71.7225 139.668 71.5356 139.562L67.6371 137.35L67.7526 135.581L66.7028 136.82L65.2329 135.986L68.4573 131.265Z" fill="#2F2E41"/>
<path d="M105.097 58.9821C104.792 59.0263 104.5 59.1368 104.242 59.3059C103.985 59.475 103.767 59.6986 103.605 59.9609C103.443 60.2233 103.34 60.5179 103.304 60.8242C103.268 61.1305 103.3 61.4409 103.397 61.7336L99.7527 64.8881L101.129 67.5704L106.214 63.0434C106.695 62.8477 107.087 62.4825 107.317 62.0168C107.546 61.5512 107.597 61.0175 107.459 60.5169C107.322 60.0163 107.005 59.5835 106.57 59.3007C106.135 59.0178 105.611 58.9045 105.097 58.9821Z" fill="#FFB6B6"/>
<path d="M101.427 69.8296C100.211 71.6708 97.4868 73.449 93.4431 75.0255C93.2201 75.1149 92.9809 75.157 92.7407 75.1491C92.5006 75.1413 92.2647 75.0837 92.048 74.9799C90.522 74.2854 89.5439 71.7036 89.4521 71.4532L86.4966 67.4662C86.4441 67.4081 85.062 65.8396 85.2201 64.2975C85.2557 63.9744 85.3608 63.6628 85.5283 63.3841C85.6957 63.1055 85.9215 62.8664 86.1901 62.6832C88.4274 61.0247 93.4417 66.785 94.0924 67.5508L97.3648 65.557L99.7493 64.4931L101.674 62.1509L104.384 64.9219L101.947 68.7998C101.817 69.1632 101.642 69.5091 101.427 69.8296Z" fill="#2F2E41"/>
<path d="M92.9274 76.8938C92.9274 76.8938 99.9303 88.0485 98.6616 89.3172C97.3929 90.5859 95.4186 90.919 95.4186 90.919L91.0493 85.2573L92.9274 76.8938Z" fill="#2F2E41"/>
<path d="M86.7358 61.6594L90.0363 63.8921C91.5704 64.9299 92.7242 66.4396 93.3228 68.1923C93.9214 69.945 93.9321 71.8451 93.3532 73.6044L92.4241 76.4287L86.7358 61.6594Z" fill="#2F2E41"/>
<path d="M80.8996 92.1084L80.4583 93.6453L78.9526 112.179L71.4302 126.198L75.0204 128.762L85.2784 115.427L89.3357 102.186L95.7075 131.498L100.495 131.156L97.1698 90.5154L90.861 79.0759L80.8996 92.1084Z" fill="#2F2E41"/>
<path d="M86.1744 62.2207L90.768 65.9749C91.7761 66.7988 92.5021 67.9167 92.8447 69.1729C93.0003 69.7432 93.0742 70.3328 93.0642 70.9239L92.9274 79.076L97.1391 90.3321C97.1391 90.3321 85.7207 94.6457 84.1982 90.8396C82.6758 87.0335 86.1744 62.2207 86.1744 62.2207Z" fill="#40C4FF"/>
<path d="M87.5483 92.8155C81.8441 92.8155 80.454 92.8584 80.3639 92.8402L80.2737 92.822V89.3912L81.6608 83.2275C81.4987 81.314 81.1189 78.7907 81.1533 76.6302C81.2777 68.8212 80.8938 61.1932 80.8938 61.1932L83.9128 58.4065L85.2844 59.299L87.8285 61.843C90.7857 69.1207 93.1323 75.9723 93.1471 76.4125L93.333 83.9887L92.5717 87.0336C89.1281 89.4645 92.2746 92.8155 87.5483 92.8155Z" fill="#2F2E41"/>
<path opacity="0.2" d="M82.1735 67.9961L81.48 72.3244L86.1745 74.2607L82.1735 67.9961Z" fill="black"/>
<path d="M86.9026 57.5945C89.441 57.5945 91.4988 55.5367 91.4988 52.9983C91.4988 50.4599 89.441 48.4021 86.9026 48.4021C84.3642 48.4021 82.3064 50.4599 82.3064 52.9983C82.3064 55.5367 84.3642 57.5945 86.9026 57.5945Z" fill="#FFB6B6"/>
<path opacity="0.2" d="M79.2012 76.3188C80.4244 77.7353 82.0837 78.7051 83.9181 79.0759C85.7525 79.4466 87.6582 79.1974 89.3355 78.3673L90.3359 77.8722L79.2012 76.3188Z" fill="black"/>
<path d="M95.1949 75.2608C94.9899 75.0305 94.7368 74.8479 94.4536 74.7259C94.1704 74.604 93.8639 74.5456 93.5557 74.5549C93.2474 74.5642 92.945 74.641 92.6697 74.7798C92.3943 74.9187 92.1528 75.1162 91.962 75.3585L87.3213 74.0557L85.8418 76.6827L92.4212 78.4305C92.8494 78.7239 93.3705 78.8501 93.8856 78.7851C94.4007 78.72 94.874 78.4683 95.2159 78.0776C95.5578 77.6869 95.7445 77.1844 95.7406 76.6652C95.7367 76.1461 95.5426 75.6464 95.1949 75.2608Z" fill="#FFB6B6"/>
<path d="M84.1207 78.1761C81.9143 78.1763 78.929 76.8827 75.3851 74.3771C75.1876 74.2403 75.0206 74.0639 74.8948 73.8592C74.769 73.6545 74.6871 73.4259 74.6543 73.1878C74.3929 71.5317 76.0083 69.2928 76.1667 69.0782L77.8648 64.4148C77.8844 64.339 78.4316 62.3213 79.8055 61.6035C80.0948 61.4551 80.4127 61.3711 80.7375 61.3573C81.0623 61.3434 81.3863 61.4001 81.6871 61.5233C84.3041 62.4762 82.2606 69.8348 81.9801 70.7998L85.4473 72.4317L87.649 73.8352L90.6643 74.1506L89.8456 77.9393L85.2664 78.0423C84.8915 78.1341 84.5066 78.179 84.1207 78.1761Z" fill="#2F2E41"/>
<path d="M92.4141 49.9746C92.0461 50.4532 90.7786 50.8765 89.273 51.218C89.2754 51.1867 89.2754 51.1555 89.2754 51.1242C89.2679 50.6453 89.2083 50.1687 89.0975 49.7028C88.9934 50.2734 88.774 50.8168 88.4529 51.2998C88.4288 51.3359 88.4048 51.3719 88.3783 51.408C87.0868 51.6629 85.7207 51.8602 84.6504 51.9924C85.3864 54.6429 88.2076 56.8171 87.9021 58.4285L79.6358 60.1169C79.6866 59.4472 79.6331 58.7738 79.4771 58.1206C79.319 58.9827 78.901 59.7757 78.2793 60.3935L77.577 60.5378L77.3678 59.506C75.5544 55.1503 78.0821 50.6913 82.2237 48.3848C82.9621 47.2778 84.1087 46.5083 85.4129 46.2442L86.4446 46.0326C87.0954 45.8994 87.7661 45.8958 88.4183 46.0218C89.0705 46.1479 89.6915 46.4011 90.2458 46.7672C90.8001 47.1332 91.2769 47.6049 91.649 48.1552C92.021 48.7055 92.281 49.3238 92.4141 49.9746Z" fill="#2F2E41"/>
<path d="M112.161 133.3L112.283 130.552C113.557 129.87 114.979 129.511 116.424 129.503C114.435 131.129 114.684 134.263 113.335 136.45C112.91 137.128 112.337 137.702 111.659 138.13C110.981 138.557 110.216 138.826 109.42 138.917L107.756 139.936C107.527 138.663 107.578 137.356 107.903 136.104C108.229 134.852 108.822 133.686 109.642 132.686C110.107 132.129 110.641 131.633 111.23 131.21C111.628 132.261 112.161 133.3 112.161 133.3Z" fill="#F2F2F2"/>
<path d="M116.195 140H58.2451C58.1651 140 58.0885 139.968 58.032 139.911C57.9756 139.855 57.9438 139.778 57.9438 139.698C57.9438 139.618 57.9756 139.541 58.032 139.485C58.0885 139.428 58.1651 139.396 58.2451 139.396H116.195C116.235 139.396 116.274 139.403 116.311 139.418C116.348 139.434 116.381 139.456 116.409 139.484C116.438 139.512 116.46 139.545 116.475 139.582C116.49 139.619 116.498 139.658 116.498 139.698C116.498 139.738 116.49 139.777 116.475 139.814C116.46 139.85 116.438 139.884 116.409 139.912C116.381 139.94 116.348 139.962 116.311 139.977C116.274 139.992 116.235 140 116.195 140Z" fill="#CACACA"/>
</g>
<defs>
<clipPath id="clip0_25_2834">
<rect width="218.252" height="140" fill="white"/>
</clipPath>
</defs>
</svg>
